<svg width="206" height="66" viewBox="0 0 206 66" fill="none" xmlns="http://www.w3.org/2000/svg">
<g opacity="0.5">
<circle cx="75.3792" cy="60.6955" r="4.13358" transform="rotate(180 75.3792 60.6955)" fill="#FFFCFC"/>
<circle cx="43.9641" cy="60.6955" r="4.13358" transform="rotate(180 43.9641 60.6955)" fill="#FFFCFC"/>
<circle cx="12.5488" cy="60.6955" r="4.13358" transform="rotate(180 12.5488 60.6955)" fill="#FFFCFC"/>
<circle cx="43.9641" cy="60.6955" r="4.13358" transform="rotate(180 43.9641 60.6955)" fill="#FFFCFC"/>
<circle cx="201.867" cy="61.1081" r="4.13358" transform="rotate(180 201.867 61.1081)" fill="#FFFCFC"/>
<circle cx="170.452" cy="61.1081" r="4.13358" transform="rotate(180 170.452 61.1081)" fill="#FFFCFC"/>
<circle cx="107.621" cy="61.1081" r="4.13358" transform="rotate(180 107.621 61.1081)" fill="#FFFCFC"/>
<circle cx="139.036" cy="61.1081" r="4.13358" transform="rotate(180 139.036 61.1081)" fill="#FFFCFC"/>
<circle cx="170.452" cy="61.1081" r="4.13358" transform="rotate(180 170.452 61.1081)" fill="#FFFCFC"/>
<circle cx="75.3792" cy="31.8357" r="4.13358" transform="rotate(180 75.3792 31.8357)" fill="#FFFCFC"/>
<circle cx="43.9641" cy="31.8357" r="4.13358" transform="rotate(180 43.9641 31.8357)" fill="#FFFCFC"/>
<circle cx="12.5488" cy="31.8357" r="4.13358" transform="rotate(180 12.5488 31.8357)" fill="#FFFCFC"/>
<circle cx="43.9641" cy="31.8357" r="4.13358" transform="rotate(180 43.9641 31.8357)" fill="#FFFCFC"/>
<circle cx="201.867" cy="32.2478" r="4.13358" transform="rotate(180 201.867 32.2478)" fill="#FFFCFC"/>
<circle cx="170.452" cy="32.2483" r="4.13358" transform="rotate(180 170.452 32.2483)" fill="#FFFCFC"/>
<circle cx="107.621" cy="32.2483" r="4.13358" transform="rotate(180 107.621 32.2483)" fill="#FFFCFC"/>
<circle cx="139.036" cy="32.2483" r="4.13358" transform="rotate(180 139.036 32.2483)" fill="#FFFCFC"/>
<circle cx="170.452" cy="32.2483" r="4.13358" transform="rotate(180 170.452 32.2483)" fill="#FFFCFC"/>
<circle cx="75.3792" cy="4.13376" r="4.13358" transform="rotate(180 75.3792 4.13376)" fill="#FFFCFC"/>
<circle cx="43.9641" cy="4.13376" r="4.13358" transform="rotate(180 43.9641 4.13376)" fill="#FFFCFC"/>
<circle cx="12.5488" cy="4.13376" r="4.13358" transform="rotate(180 12.5488 4.13376)" fill="#FFFCFC"/>
<circle cx="43.9641" cy="4.13376" r="4.13358" transform="rotate(180 43.9641 4.13376)" fill="#FFFCFC"/>
<circle cx="201.867" cy="4.54611" r="4.13358" transform="rotate(180 201.867 4.54611)" fill="#FFFCFC"/>
<circle cx="170.452" cy="4.54635" r="4.13358" transform="rotate(180 170.452 4.54635)" fill="#FFFCFC"/>
<circle cx="107.621" cy="4.54635" r="4.13358" transform="rotate(180 107.621 4.54635)" fill="#FFFCFC"/>
<circle cx="139.036" cy="4.54635" r="4.13358" transform="rotate(180 139.036 4.54635)" fill="#FFFCFC"/>
<circle cx="170.452" cy="4.54635" r="4.13358" transform="rotate(180 170.452 4.54635)" fill="#FFFCFC"/>
</g>
</svg>
