<svg width="88" height="308" viewBox="0 0 88 308" fill="none" xmlns="http://www.w3.org/2000/svg">
<g opacity="0.5">
<circle cx="81.423" cy="175.228" r="5.54519" transform="rotate(90 81.423 175.228)" fill="#E18370"/>
<circle cx="81.423" cy="217.371" r="5.54519" transform="rotate(90 81.423 217.371)" fill="#E18370"/>
<circle cx="81.423" cy="301.658" r="5.54519" transform="rotate(90 81.423 301.658)" fill="#E18370"/>
<circle cx="81.423" cy="259.515" r="5.54519" transform="rotate(90 81.423 259.515)" fill="#E18370"/>
<circle cx="81.423" cy="217.371" r="5.54519" transform="rotate(90 81.423 217.371)" fill="#E18370"/>
<circle cx="81.9764" cy="5.54519" r="5.54519" transform="rotate(90 81.9764 5.54519)" fill="#E18370"/>
<circle cx="81.9765" cy="47.6887" r="5.54519" transform="rotate(90 81.9765 47.6887)" fill="#E18370"/>
<circle cx="81.9765" cy="131.975" r="5.54519" transform="rotate(90 81.9765 131.975)" fill="#E18370"/>
<circle cx="81.9765" cy="89.8323" r="5.54519" transform="rotate(90 81.9765 89.8323)" fill="#E18370"/>
<circle cx="81.9765" cy="47.6887" r="5.54519" transform="rotate(90 81.9765 47.6887)" fill="#E18370"/>
<circle cx="42.7074" cy="175.228" r="5.54519" transform="rotate(90 42.7074 175.228)" fill="#E18370"/>
<circle cx="42.7074" cy="217.371" r="5.54519" transform="rotate(90 42.7074 217.371)" fill="#E18370"/>
<circle cx="42.7074" cy="301.658" r="5.54519" transform="rotate(90 42.7074 301.658)" fill="#E18370"/>
<circle cx="42.7074" cy="259.515" r="5.54519" transform="rotate(90 42.7074 259.515)" fill="#E18370"/>
<circle cx="42.7074" cy="217.371" r="5.54519" transform="rotate(90 42.7074 217.371)" fill="#E18370"/>
<circle cx="43.2603" cy="5.54519" r="5.54519" transform="rotate(90 43.2603 5.54519)" fill="#E18370"/>
<circle cx="43.2609" cy="47.6887" r="5.54519" transform="rotate(90 43.2609 47.6887)" fill="#E18370"/>
<circle cx="43.2609" cy="131.975" r="5.54519" transform="rotate(90 43.2609 131.975)" fill="#E18370"/>
<circle cx="43.2609" cy="89.8323" r="5.54519" transform="rotate(90 43.2609 89.8323)" fill="#E18370"/>
<circle cx="43.2609" cy="47.6887" r="5.54519" transform="rotate(90 43.2609 47.6887)" fill="#E18370"/>
<circle cx="5.54526" cy="175.228" r="5.54519" transform="rotate(90 5.54526 175.228)" fill="#E18370"/>
<circle cx="5.54526" cy="217.371" r="5.54519" transform="rotate(90 5.54526 217.371)" fill="#E18370"/>
<circle cx="5.54526" cy="301.658" r="5.54519" transform="rotate(90 5.54526 301.658)" fill="#E18370"/>
<circle cx="5.54526" cy="259.515" r="5.54519" transform="rotate(90 5.54526 259.515)" fill="#E18370"/>
<circle cx="5.54526" cy="217.371" r="5.54519" transform="rotate(90 5.54526 217.371)" fill="#E18370"/>
<circle cx="6.09857" cy="5.54519" r="5.54519" transform="rotate(90 6.09857 5.54519)" fill="#E18370"/>
<circle cx="6.09874" cy="47.6887" r="5.54519" transform="rotate(90 6.09874 47.6887)" fill="#E18370"/>
<circle cx="6.09873" cy="131.975" r="5.54519" transform="rotate(90 6.09873 131.975)" fill="#E18370"/>
<circle cx="6.09873" cy="89.8323" r="5.54519" transform="rotate(90 6.09873 89.8323)" fill="#E18370"/>
<circle cx="6.09874" cy="47.6887" r="5.54519" transform="rotate(90 6.09874 47.6887)" fill="#E18370"/>
</g>
</svg>
