<svg width="88" height="308" viewBox="0 0 88 308" fill="none" xmlns="http://www.w3.org/2000/svg">
<g opacity="0.5">
<circle cx="6.09854" cy="131.976" r="5.54519" transform="rotate(-90 6.09854 131.976)" fill="#F4F4F4"/>
<circle cx="6.09854" cy="89.8323" r="5.54519" transform="rotate(-90 6.09854 89.8323)" fill="#E18370"/>
<circle cx="6.09854" cy="5.54514" r="5.54519" transform="rotate(-90 6.09854 5.54514)" fill="#F4F4F4"/>
<circle cx="6.09854" cy="47.6887" r="5.54519" transform="rotate(-90 6.09854 47.6887)" fill="#F4F4F4"/>
<circle cx="6.09854" cy="89.8323" r="5.54519" transform="rotate(-90 6.09854 89.8323)" fill="#F4F4F4"/>
<circle cx="5.54519" cy="301.658" r="5.54519" transform="rotate(-90 5.54519 301.658)" fill="#E18370"/>
<circle cx="5.54507" cy="259.515" r="5.54519" transform="rotate(-90 5.54507 259.515)" fill="#E18370"/>
<circle cx="5.54507" cy="175.228" r="5.54519" transform="rotate(-90 5.54507 175.228)" fill="#F4F4F4"/>
<circle cx="5.54507" cy="217.372" r="5.54519" transform="rotate(-90 5.54507 217.372)" fill="#E18370"/>
<circle cx="5.54507" cy="259.515" r="5.54519" transform="rotate(-90 5.54507 259.515)" fill="#E18370"/>
<circle cx="44.8142" cy="131.976" r="5.54519" transform="rotate(-90 44.8142 131.976)" fill="#F4F4F4"/>
<circle cx="44.8141" cy="89.8323" r="5.54519" transform="rotate(-90 44.8141 89.8323)" fill="#E18370"/>
<circle cx="44.8141" cy="5.54514" r="5.54519" transform="rotate(-90 44.8141 5.54514)" fill="#F4F4F4"/>
<circle cx="44.8141" cy="47.6887" r="5.54519" transform="rotate(-90 44.8141 47.6887)" fill="#F4F4F4"/>
<circle cx="44.8141" cy="89.8323" r="5.54519" transform="rotate(-90 44.8141 89.8323)" fill="#F4F4F4"/>
<circle cx="44.2613" cy="301.658" r="5.54519" transform="rotate(-90 44.2613 301.658)" fill="#E18370"/>
<circle cx="44.2608" cy="259.515" r="5.54519" transform="rotate(-90 44.2608 259.515)" fill="#E18370"/>
<circle cx="44.2608" cy="175.228" r="5.54519" transform="rotate(-90 44.2608 175.228)" fill="#F4F4F4"/>
<circle cx="44.2608" cy="217.372" r="5.54519" transform="rotate(-90 44.2608 217.372)" fill="#E18370"/>
<circle cx="44.2608" cy="259.515" r="5.54519" transform="rotate(-90 44.2608 259.515)" fill="#E18370"/>
<circle cx="81.9763" cy="131.976" r="5.54519" transform="rotate(-90 81.9763 131.976)" fill="#F4F4F4"/>
<circle cx="81.9763" cy="89.8323" r="5.54519" transform="rotate(-90 81.9763 89.8323)" fill="#E18370"/>
<circle cx="81.9763" cy="5.54514" r="5.54519" transform="rotate(-90 81.9763 5.54514)" fill="#F4F4F4"/>
<circle cx="81.9763" cy="47.6887" r="5.54519" transform="rotate(-90 81.9763 47.6887)" fill="#F4F4F4"/>
<circle cx="81.9763" cy="89.8323" r="5.54519" transform="rotate(-90 81.9763 89.8323)" fill="#F4F4F4"/>
<circle cx="81.423" cy="301.658" r="5.54519" transform="rotate(-90 81.423 301.658)" fill="#E18370"/>
<circle cx="81.4229" cy="259.515" r="5.54519" transform="rotate(-90 81.4229 259.515)" fill="#E18370"/>
<circle cx="81.4229" cy="175.228" r="5.54519" transform="rotate(-90 81.4229 175.228)" fill="#F4F4F4"/>
<circle cx="81.4229" cy="217.372" r="5.54519" transform="rotate(-90 81.4229 217.372)" fill="#E18370"/>
<circle cx="81.4229" cy="259.515" r="5.54519" transform="rotate(-90 81.4229 259.515)" fill="#E18370"/>
</g>
</svg>
