<svg width="308" height="88" viewBox="0 0 308 88" fill="none" xmlns="http://www.w3.org/2000/svg">
<g opacity="0.5">
<circle cx="131.975" cy="81.4228" r="5.54519" transform="rotate(180 131.975 81.4228)" fill="#FFFCFC"/>
<circle cx="89.8319" cy="81.4228" r="5.54519" transform="rotate(180 89.8319 81.4228)" fill="#FFFCFC"/>
<circle cx="5.54496" cy="81.4228" r="5.54519" transform="rotate(180 5.54496 81.4228)" fill="#FFFCFC"/>
<circle cx="47.6884" cy="81.4228" r="5.54519" transform="rotate(180 47.6884 81.4228)" fill="#FFFCFC"/>
<circle cx="89.8319" cy="81.4228" r="5.54519" transform="rotate(180 89.8319 81.4228)" fill="#FFFCFC"/>
<circle cx="301.658" cy="81.9763" r="5.54519" transform="rotate(180 301.658 81.9763)" fill="#FFFCFC"/>
<circle cx="259.515" cy="81.9763" r="5.54519" transform="rotate(180 259.515 81.9763)" fill="#FFFCFC"/>
<circle cx="175.228" cy="81.9763" r="5.54519" transform="rotate(180 175.228 81.9763)" fill="#FFFCFC"/>
<circle cx="217.371" cy="81.9763" r="5.54519" transform="rotate(180 217.371 81.9763)" fill="#FFFCFC"/>
<circle cx="259.515" cy="81.9763" r="5.54519" transform="rotate(180 259.515 81.9763)" fill="#FFFCFC"/>
<circle cx="131.975" cy="42.7073" r="5.54519" transform="rotate(180 131.975 42.7073)" fill="#FFFCFC"/>
<circle cx="89.8319" cy="42.7073" r="5.54519" transform="rotate(180 89.8319 42.7073)" fill="#FFFCFC"/>
<circle cx="5.54496" cy="42.7073" r="5.54519" transform="rotate(180 5.54496 42.7073)" fill="#FFFCFC"/>
<circle cx="47.6884" cy="42.7073" r="5.54519" transform="rotate(180 47.6884 42.7073)" fill="#FFFCFC"/>
<circle cx="89.8319" cy="42.7073" r="5.54519" transform="rotate(180 89.8319 42.7073)" fill="#FFFCFC"/>
<circle cx="301.658" cy="43.2602" r="5.54519" transform="rotate(180 301.658 43.2602)" fill="#FFFCFC"/>
<circle cx="259.515" cy="43.2607" r="5.54519" transform="rotate(180 259.515 43.2607)" fill="#FFFCFC"/>
<circle cx="175.228" cy="43.2607" r="5.54519" transform="rotate(180 175.228 43.2607)" fill="#FFFCFC"/>
<circle cx="217.371" cy="43.2607" r="5.54519" transform="rotate(180 217.371 43.2607)" fill="#FFFCFC"/>
<circle cx="259.515" cy="43.2607" r="5.54519" transform="rotate(180 259.515 43.2607)" fill="#FFFCFC"/>
<circle cx="131.975" cy="5.54514" r="5.54519" transform="rotate(180 131.975 5.54514)" fill="#FFFCFC"/>
<circle cx="89.8319" cy="5.54514" r="5.54519" transform="rotate(180 89.8319 5.54514)" fill="#FFFCFC"/>
<circle cx="5.54496" cy="5.54514" r="5.54519" transform="rotate(180 5.54496 5.54514)" fill="#FFFCFC"/>
<circle cx="47.6884" cy="5.54514" r="5.54519" transform="rotate(180 47.6884 5.54514)" fill="#FFFCFC"/>
<circle cx="89.8319" cy="5.54514" r="5.54519" transform="rotate(180 89.8319 5.54514)" fill="#FFFCFC"/>
<circle cx="301.658" cy="6.09836" r="5.54519" transform="rotate(180 301.658 6.09836)" fill="#FFFCFC"/>
<circle cx="259.515" cy="6.09861" r="5.54519" transform="rotate(180 259.515 6.09861)" fill="#FFFCFC"/>
<circle cx="175.228" cy="6.09861" r="5.54519" transform="rotate(180 175.228 6.09861)" fill="#FFFCFC"/>
<circle cx="217.371" cy="6.09861" r="5.54519" transform="rotate(180 217.371 6.09861)" fill="#FFFCFC"/>
<circle cx="259.515" cy="6.09861" r="5.54519" transform="rotate(180 259.515 6.09861)" fill="#FFFCFC"/>
</g>
</svg>
