<svg width="137" height="42" viewBox="0 0 137 42" fill="none" xmlns="http://www.w3.org/2000/svg">
<g clip-path="url(#clip0)">
<path d="M67.0602 25.0344H63.6946V38.5061V41.856H67.0602H74.0074V38.5061H67.0602V25.0344Z" fill="#FFF5ED"/>
<path d="M75.4473 25.0344V28.4023V31.7703V35.1382V38.5061V41.856H78.8129H86.606V38.5061H78.8129V35.1382H84.6262V31.7703H78.8129V28.4023H86.606V25.0344H78.8129H75.4473Z" fill="#FFF5ED"/>
<path d="M5.1654 25.0344H0V41.856H5.1654C9.80885 41.856 13.5704 38.0919 13.5704 33.4452C13.5704 28.7986 9.80885 25.0344 5.1654 25.0344ZM10.2048 33.4452C10.2048 36.2368 7.95507 38.4881 5.1654 38.4881H3.36561V28.3843H5.1654C7.93707 28.4023 10.2048 30.6716 10.2048 33.4452Z" fill="#FFF5ED"/>
<path d="M23.1094 24.9082C18.3939 24.9082 14.5784 28.7264 14.5784 33.4451C14.5784 38.1638 18.3939 41.982 23.1094 41.982C27.8248 41.982 31.6404 38.1638 31.6404 33.4451C31.6404 28.7264 27.8248 24.9082 23.1094 24.9082ZM23.1094 38.4339C20.3737 38.4339 18.142 36.2007 18.142 33.4631C18.142 30.7255 20.3737 28.4922 23.1094 28.4922C25.8451 28.4922 28.0768 30.7255 28.0768 33.4631C28.0768 36.2007 25.8451 38.4339 23.1094 38.4339Z" fill="#FFF5ED"/>
<path d="M44.2389 33.4632C44.2389 36.2008 43.303 38.4341 40.1894 38.4341C37.2197 38.4341 36.1399 36.2008 36.1399 33.4632V25.0344H32.5403V33.4452C32.5403 38.1639 34.628 41.9821 40.1714 41.9821C45.6967 41.9821 47.8025 38.1639 47.8025 33.4452V25.0344H44.2029V33.4632H44.2389Z" fill="#FFF5ED"/>
<path d="M111.749 5.33105C107.034 5.33105 103.218 9.14924 103.218 13.8679C103.218 18.5866 107.034 22.4048 111.749 22.4048C116.464 22.4048 120.28 18.5866 120.28 13.8679C120.28 9.14924 116.464 5.33105 111.749 5.33105ZM111.749 18.8568C109.013 18.8568 106.782 16.6235 106.782 13.8859C106.782 11.1484 109.013 8.9151 111.749 8.9151C114.485 8.9151 116.716 11.1484 116.716 13.8859C116.716 16.6235 114.485 18.8568 111.749 18.8568Z" fill="#FFF5ED"/>
<path d="M132.879 13.8858C132.879 16.6234 131.943 18.8567 128.829 18.8567C125.859 18.8567 124.78 16.6234 124.78 13.8858V5.45703H121.18V13.8678C121.18 18.5865 123.268 22.4047 128.811 22.4047C134.336 22.4047 136.442 18.5865 136.442 13.8678V5.45703H132.843V13.8858H132.879Z" fill="#FFF5ED"/>
<path d="M59.5371 32.6528C60.329 31.9504 60.797 30.9958 60.797 29.8612C60.797 27.1957 59.1052 25.0344 55.9735 25.0344H52.7699H49.4043V28.4023V31.248V34.6159V38.5061V41.874H52.7699H57.2694C60.347 41.874 62.4168 39.8929 62.4168 36.615C62.4168 34.4358 61.1569 33.2651 59.5371 32.6528ZM52.7699 28.4023H55.9735C56.8014 28.4023 57.3414 29.0147 57.3414 29.8612C57.3414 30.6176 56.7294 31.23 55.9735 31.23V31.248H52.7879V28.4023H52.7699ZM57.2694 38.5061H52.7699V34.6159H57.2694C58.4572 34.6159 59.1232 35.5344 59.1232 36.561C59.1412 37.6596 58.3853 38.5061 57.2694 38.5061Z" fill="#FFF5ED"/>
<path d="M101.472 5.45703L96.6847 12.0488L92.0952 5.45703H88.0457L95.0108 15.1286V22.2786H98.3765V15.1286L105.504 5.45703H101.472Z" fill="#FFF5ED"/>
<path d="M86.6059 0H83.2763H83.2403V19.1449H0V22.5129H86.6059V22.4228V19.1449V3.36792H137V0H86.6059Z" fill="#FFF5ED"/>
<line x1="41.5" y1="41" x2="41.5" y2="266" stroke="black"/>
</g>
<defs>
<clipPath id="clip0">
<rect width="137" height="42" fill="white"/>
</clipPath>
</defs>
</svg>
