<svg width="47" height="46" viewBox="0 0 47 46" fill="none" xmlns="http://www.w3.org/2000/svg">
<path d="M46.7059 22.877C46.7059 26.3209 46.7059 29.7647 46.7059 32.9626C46.7059 36.1604 45.7226 38.8663 43.756 41.3262C41.7893 43.7861 39.0852 45.262 35.8894 45.754C35.1519 45.754 34.4144 46 33.9227 46C27.0395 46 20.402 46 13.5188 46C8.11051 46 3.43972 42.8021 1.47307 37.8824C0.981411 36.4064 0.489746 34.9305 0.489746 33.4545C0.489746 26.5668 0.489746 19.6791 0.489746 12.7914C0.489746 7.37968 3.68555 2.70588 8.60217 0.983957C10.0772 0.491979 11.798 0 13.273 0C20.1562 0 27.0395 0 33.9227 0C38.5935 0 42.281 2.2139 44.7393 6.14973C46.2143 8.11765 46.7059 10.3315 46.7059 12.7914C46.7059 16.2353 46.7059 19.6791 46.7059 22.877ZM23.5978 10.0856C16.4687 10.0856 10.8146 15.7433 10.8146 22.877C10.8146 30.0107 16.4687 35.6684 23.5978 35.6684C30.7269 35.6684 36.3811 30.0107 36.3811 22.877C36.3811 15.7433 30.7269 10.0856 23.5978 10.0856ZM41.5435 7.62567C41.5435 6.14973 40.3143 5.16578 39.0852 5.16578C37.6102 5.16578 36.6269 6.39572 36.6269 7.62567C36.6269 9.1016 37.856 10.0856 39.0852 10.0856C40.5602 10.0856 41.5435 8.85561 41.5435 7.62567Z" fill="#FFF2E9"/>
<path d="M15.9771 22.8772C15.9771 18.6954 19.4187 15.2515 23.5978 15.2515C27.7769 15.2515 31.2185 18.6954 31.2185 22.8772C31.2185 27.059 27.7769 30.5029 23.5978 30.5029C19.4187 30.7489 15.9771 27.305 15.9771 22.8772Z" fill="#FFF2E9"/>
</svg>
