<svg width="1440" height="737" viewBox="0 0 1440 737" fill="none" xmlns="http://www.w3.org/2000/svg">
<rect x="-7" width="1471" height="736" fill="#E18370"/>
<path d="M644.601 340.5C646.546 336.705 650.76 339.432 653.22 336.095C651.98 332.929 655.966 328.753 652.171 325.492C647.271 325.129 642.732 324.786 637.908 324.443V274.364C644.506 272.267 644.582 272.038 642.275 262.217C639.052 261.721 635.773 261.225 632.645 260.729C631.825 243.833 631.826 243.833 637.088 238.836C633.77 236.834 632.073 234.279 631.482 230.083C628.946 212.272 625.133 194.632 622.864 176.782C621.7 167.59 620.061 157.788 625.876 149.359C622.73 143.18 622.73 143.18 616.571 144.21C617.963 145.983 619.164 147.509 620.633 149.378C618.344 150.35 616.533 151.113 615.618 151.495C616.571 156.186 618.039 160.019 617.982 163.833C617.868 170.45 617.086 177.087 616.094 183.647C613.863 198.331 611.156 212.92 609.001 227.604C608.334 232.105 607.495 236.148 603.204 238.455C610.069 245.664 606.046 253.521 606.751 260.844C595.635 262.274 595.635 262.274 596.359 272.286C598.209 272.991 600.192 273.754 602.423 274.593V324.329C597.103 324.824 592.221 325.282 586.73 325.797V336.8C589.552 338.002 593.404 338.402 594.891 340.5C599.41 346.889 603.166 353.468 603.052 362.183C602.594 398.417 602.861 434.65 602.88 470.865C602.88 490.259 602.88 509.634 602.899 529.01C602.899 533.587 602.728 538.106 599.677 541.615C593.308 531.889 587.397 522.545 581.086 513.487C579.351 511.008 578.302 508.719 578.321 505.725C578.397 493.959 578.454 482.211 578.321 470.445C578.225 463.294 581.696 458.812 587.95 456.238V444.853C584.556 444.3 581.581 443.823 578.531 443.327V424.428C580.971 423.799 583.298 423.189 585.853 422.521C585.853 419.585 586.024 417.048 585.776 414.55C585.662 413.444 584.632 411.461 584.137 411.499C579.56 411.785 581.257 407.856 579.942 406.045C576.204 400.972 577.12 395.404 576.681 389.93C576.338 385.582 574.183 382.207 571.247 379.117C569.778 377.573 567.795 375.723 567.662 373.873C567.281 369.22 566.48 364.376 569.187 359.933C570.122 358.388 570.922 356.367 570.751 354.669C570.579 353.029 569.416 351.046 568.043 350.112C566.956 349.349 564.935 349.959 562.208 349.959C564.077 352.572 565.221 354.212 566.442 355.909C564.172 356.767 562.228 357.511 560.263 358.255C563.905 366.779 566.213 374.579 558.185 381.558C556.66 382.893 555.783 385.315 555.287 387.394C554.505 390.731 554.562 394.278 553.78 397.616C552.522 402.974 553.437 409.592 546.058 411.937V422.617C548.499 423.208 550.825 423.78 553.342 424.409C552.98 431.027 554.372 437.32 552.331 443.67C548.918 444.014 545.886 444.319 542.568 444.643V456.905C549.052 457.344 552.217 462.169 553.037 467.375C554.086 474.087 553.285 481.086 553.285 489.21C549.299 487.265 546.592 485.835 543.789 484.652C540.986 483.47 538.049 482.574 535.666 481.716C539.727 425.954 516.388 389.358 462.655 373.301C462.655 355.661 462.96 338.517 462.502 321.392C462.312 313.783 466.22 308.329 469.195 302.054C471.502 297.134 476.479 299.156 479.435 296.238C479.282 292.805 479.129 289.43 478.958 285.635C473.199 285.082 468.07 284.586 462.655 284.052C462.655 268.872 462.75 254.608 462.578 240.343C462.521 235.347 465.191 233.001 469.329 232.124C469.634 222.302 469.634 222.302 458.422 220.472V213.149C458.422 210.288 458.021 207.351 458.574 204.605C459.013 202.431 460.634 200.505 462.064 197.893C457.907 196.176 456.877 192.4 456.61 188.186C456.439 185.649 456.248 183.113 455.828 180.615C453.045 164.119 449.727 147.68 447.629 131.108C446.847 124.872 445.57 118.083 449.994 111.828C452.816 107.805 450.547 104.372 445.322 103.018C444.731 102.865 443.854 103.723 442.729 104.315C444.159 106.184 445.379 107.766 446.886 109.75C444.197 110.398 442.176 110.894 440.345 111.333C441.356 113.945 442.881 116.195 442.996 118.503C443.301 124.205 443.625 130.021 442.786 135.628C440.021 154.374 436.818 173.044 433.557 191.714C433.118 194.193 431.383 196.443 430.125 199.037C435.426 205.463 432.794 213.263 432.718 221.12C429.095 221.406 426.025 221.673 423.089 221.902C421.029 232.238 421.048 232.276 427.894 234.374C427.894 242.46 427.97 250.698 427.856 258.937C427.741 267.404 428.39 275.909 427.493 284.052C421.983 284.643 417.387 285.12 412.563 285.635V296.734C415.423 297.764 419.142 297.916 420.343 299.728C423.909 305.163 428.008 310.522 427.932 317.73C427.741 332.986 427.875 348.243 427.894 363.499V373.911C425.777 374.674 424.347 375.322 422.86 375.685C384.819 384.724 354.559 422.331 355.34 461.825C355.474 468.462 355.359 475.098 355.359 481.525C349.754 483.871 344.586 486.045 338.046 488.791C338.046 482.745 338.16 478.035 338.008 473.306C337.76 465.01 340.41 458.583 349.467 455.933C348.667 451.966 350.631 448.19 348.095 444.452C344.987 444.242 341.917 444.033 338.503 443.804V424.352C341.001 423.666 343.289 423.036 345.33 422.483V412.7C343.518 411.956 342.107 411.365 340.753 410.793C339.018 403.26 335.929 396.224 336.063 388.252C336.101 385.296 333.317 381.978 331.143 379.384C329.408 377.325 328.607 375.418 328.15 372.786C327.272 367.58 328.188 362.927 330.018 358.083C330.781 356.1 330.171 353.048 329.046 351.141C328.321 349.864 325.594 349.73 323.764 349.101C323.478 349.559 323.173 349.997 322.868 350.455C324.031 352.209 325.194 353.945 326.433 355.833C324.298 356.634 322.658 357.244 321.094 357.835C321.209 358.884 321.171 359.513 321.361 360.085C323.878 367.809 325.213 375.036 318.158 381.692C315.679 384.038 314.611 388.328 313.849 391.952C312.514 398.283 311.904 404.786 311.046 410.85C308.891 411.556 307.48 412.014 306.24 412.414V422.827C308.891 423.38 310.931 423.799 312.743 424.181V443.556C308.929 444.09 305.649 444.548 302.465 445.005V456.657C309.921 459.022 313.181 463.37 313.257 471.36C313.372 482.803 313.315 494.245 313.143 505.687C313.124 507.785 312.895 510.474 311.637 511.885C303.266 521.134 297.259 531.87 290.776 544.743C289.918 538.24 288.793 533.606 288.774 528.991C288.66 474.335 288.927 419.661 288.545 365.005C288.469 354.898 290.757 346.355 297.355 338.708C299.853 338.174 302.522 337.582 305.363 336.953C305.173 333.082 305.02 329.725 304.81 325.396C299.509 325.206 294.456 325.034 289.156 324.843V274.269C291.253 273.354 292.893 272.648 294.8 271.828C294.59 268.472 294.38 265.42 294.151 261.969C290.814 261.702 288.088 261.492 284.751 261.225C285.38 253.292 281.795 245.511 288.107 238.455C284.408 236.987 283.245 234.469 282.672 230.56C280.041 212.443 276.228 194.479 273.958 176.324C272.929 168.105 271.461 159.39 275.961 151.208C278.211 147.108 275.694 143.828 270.374 143.085C269.744 142.989 269.001 143.809 268.181 144.267C269.458 146.021 270.526 147.452 271.956 149.397C269.63 150.312 267.8 151.037 265.893 151.781C269.211 157.12 269.554 157.139 269.191 162.403C268.619 170.584 267.78 178.765 266.598 186.87C264.539 200.925 261.888 214.903 260.077 228.996C259.505 233.382 257.941 236.529 254.204 238.569C258.704 243.795 259.314 249.363 257.064 261.072C246.615 262.255 246.615 262.255 247.683 272.305C249.59 273.087 251.554 273.888 253.384 274.631C254.585 287.675 254.261 317.463 252.831 324.271C247.95 324.748 243.049 325.225 237.71 325.759V336.629C241.066 338.174 244.804 338.688 246.31 340.805C251.096 347.48 254.299 354.517 254.223 363.537C253.746 417.239 254.052 470.941 253.899 524.662C253.88 531.184 252.564 537.706 251.935 543.675C252.66 547.565 253.899 551.131 253.937 554.698C254.09 582.674 254.013 610.631 253.994 638.607C253.994 640.457 253.804 642.287 253.689 644.595C248.312 644.957 243.412 645.281 237.787 645.663C237.653 649.401 237.424 652.471 237.424 655.541C237.386 678.101 237.405 700.681 237.348 723.241C237.329 724.9 237.234 731.269 237.081 735.942C297.164 735.942 357.247 735.942 417.349 735.961C447.153 735.961 476.956 736.075 506.778 735.942C540.357 735.77 573.935 735.255 607.533 735.102C619.183 735.045 641.188 735.102 652.838 735.141C652.838 725.3 653.067 710.959 653.067 701.482C653.067 692.271 653.143 683.06 653.048 673.849C652.972 664.428 653.449 654.988 652.762 645.453C647.271 645.148 642.675 644.881 637.584 644.595V633.458C637.584 610.898 637.393 588.338 637.698 565.777C637.794 558.626 635.792 551.208 639.472 544.247C639.948 543.351 639.148 541.806 638.995 540.566C638.518 536.829 637.66 533.091 637.641 529.353C637.565 473.42 637.584 417.487 637.584 361.554C637.584 359.647 637.47 357.721 637.622 355.833C638.118 349.883 642.027 345.516 644.601 340.5ZM619.489 190.264C623.55 205.139 624.789 220.491 627.936 236.148H612.738C613.272 220.472 618.211 205.654 619.489 190.264ZM611.747 241.411H627.631V261.072C625.133 261.244 622.444 261.492 619.736 261.587C617.258 261.664 614.779 261.606 611.747 261.606V241.411ZM607.533 274.345C615.503 272.877 623.741 273.01 632.512 273.983C634.228 282.355 633.122 290.536 633.313 298.622C633.503 306.822 633.351 315.022 633.351 324.329H607.533V274.345ZM589.685 332.147C591.115 331.232 591.993 330.183 592.889 330.164C610.927 330.088 628.965 330.126 647.023 330.202C647.557 330.202 648.071 330.774 650.379 332.071C647.976 333.063 647.023 333.768 646.012 333.845C630.948 335.008 596.283 334.073 589.685 332.147ZM600.935 559.427C602.156 562.917 602.747 566.826 602.766 570.564C602.918 594.02 602.823 617.477 602.785 640.933C602.785 641.849 602.537 642.764 602.27 644.671C599.01 644.786 595.673 644.976 592.317 645.034C588.865 645.091 585.414 645.053 582.154 645.053C580.59 602.926 584.842 561.315 579.141 519.761C589.495 531.394 595.921 545.067 600.935 559.427ZM565.221 381.349C573.306 388.061 573.363 388.214 571.895 401.964H559.196C559.882 394.717 556.355 386.898 565.221 381.349ZM549.605 417.792C552.865 414.684 556.412 416.152 559.482 415.923C562.933 415.656 566.422 415.866 569.893 415.866H580.056C573.478 419.794 561.217 419.871 549.605 417.792ZM557.689 423.799H572.467V443.766H558.528C556.507 437.625 557.937 431.122 557.689 423.799ZM548.079 452.023C547.641 452.023 547.202 451.279 546.001 450.173C552.884 448.018 574.202 447.732 584.461 449.563C583.545 450.65 582.878 452.099 582.192 452.119C570.827 452.214 559.444 452.138 548.079 452.023ZM568.825 532.042C567.929 529.429 566.308 527.866 563.41 528.304C563.391 528.381 563.353 528.457 563.333 528.533C563.257 528.609 563.2 528.667 563.143 528.743C563.162 528.934 563.143 529.124 563.086 529.277C557.461 542.073 556.946 555.518 557.155 569.248C557.518 591.446 557.27 613.644 557.289 635.861V644.614H552.255V574.454C552.255 567.475 552.255 560.495 552.217 553.515C552.198 543.618 556.45 535.646 563.143 528.743V528.342C563.238 528.323 563.333 528.304 563.41 528.304C564.001 526.721 564.611 525.062 565.622 522.335C568.787 527.599 571.781 531.603 573.725 536.066C575.327 539.708 576.471 543.885 576.509 547.832C576.738 578.268 576.662 608.686 576.605 639.122C576.605 641.01 575.956 642.898 574.45 644.557C574.45 616.256 574.317 587.975 574.507 559.694C574.584 549.987 571.857 541.024 568.825 532.042ZM568.958 640.533H561.846C561.713 638.473 561.484 636.662 561.484 634.85C561.465 609.181 561.484 583.513 561.446 557.844C561.446 551.208 562.132 544.762 565.526 537.553C567.681 542.054 568.939 545.639 568.939 549.587C568.958 579.641 568.958 609.715 568.958 640.533ZM557.651 469.625C562.8 466.841 567.509 467.165 573.268 469.587V507.727C568.653 508.3 563.791 508.91 557.861 509.654C557.346 496.056 557.632 482.898 557.651 469.625ZM556.66 463.561C555.611 461.482 554.905 460.09 553.933 458.145H576.338C576.242 461.616 574.927 463.503 571.475 463.561C566.747 463.618 561.999 463.561 556.66 463.561ZM562.018 519.57C558.128 526.168 554.352 532.557 550.844 538.507C543.35 528.819 536.295 519.665 528.82 509.997C530.899 509.444 532.996 508.204 534.77 508.567C544.227 510.474 553.742 512.514 562.018 519.57ZM548.003 633.382V644.766H498.064C498.064 626.859 498.216 608.933 498.007 591.026C497.892 581.224 497.416 571.403 496.672 561.62C496.062 553.687 493.297 546.421 487.901 539.804C482.905 545.715 480.521 552.295 479.435 559.103C478.31 566.273 477.928 573.596 477.852 580.881C477.642 600.504 477.776 620.166 477.833 639.789C477.833 641.277 478.195 642.764 478.443 644.633H471.96V634.964C471.96 607.961 472.246 580.938 471.788 553.935C471.636 545.029 474.458 537.668 479.854 531.298C485.193 525.024 491.428 519.551 497.187 513.639C500.161 510.607 503.06 510.607 506.492 512.953C518.467 521.153 528.401 531.127 535.094 544.171C536.2 546.326 536.276 550.35 541.1 549.091C541.138 542.054 536.676 537 532.996 531.813C524.492 519.818 513.261 510.76 501.286 505.534C488.358 514.402 483.267 517.816 468.718 539.613C467.231 538.545 465.763 537.496 463.875 536.161C472.646 521.344 484.03 509.863 498.312 501.129C500.829 499.584 502.85 500.08 505.386 501.244C517.799 506.927 527.676 515.661 536.219 526.092C537.63 527.808 538.793 529.696 540.09 531.508C545.791 539.441 548.518 547.909 548.232 558.073C547.545 583.169 548.003 608.285 548.003 633.382ZM483.019 568.962C482.981 562.211 483.744 555.746 487.901 549.701C490.952 554.354 492.706 559.179 492.706 564.614V640.38H483.305C483.21 638.092 483.038 636.261 483.038 634.43C483.038 612.595 483.096 590.779 483.019 568.962ZM463.208 524.566C462.826 512.247 461.949 499.909 463.532 486.788C474.191 490.297 484.202 493.577 495.986 497.449C482.524 505.592 473.333 515.394 465.038 526.035C464.142 525.329 463.227 524.967 463.208 524.566ZM539.346 487.99C544.132 490.107 548.804 492.471 553.018 494.512V506.602C548.689 509.31 545.352 506.126 542.035 505.21C535.666 503.437 529.755 502.845 523.787 507.136C520.202 504.657 516.712 502.235 512.994 499.68C519.344 492.528 527.219 490.145 534.941 487.608C536.238 487.17 538.049 487.418 539.346 487.99ZM506.644 496.342C492.763 491.327 477.547 487.494 463.017 481.391C463.246 479.751 463.284 478.836 463.551 477.997C463.818 477.158 464.333 476.376 464.867 475.327H530.117C530.403 477.959 530.708 480.629 530.994 483.089C523.081 487.399 515.664 491.441 506.644 496.342ZM509.447 438.865C507.96 434.345 504.147 431.141 499.608 428.853C494.479 430.779 490.78 434.288 489.045 439.151C487.233 444.166 486.28 449.468 480.731 451.318C481.303 458.564 486.852 463.809 483.877 472.009C480.998 464.629 478.576 458.431 475.888 451.527C476.803 450.574 477.852 448.915 479.358 447.999C481.951 446.417 483.324 444.414 484.182 441.458C486.509 433.411 491.791 427.804 499.494 424.524C506.702 428.433 512.632 433.239 514.1 442.068C514.405 443.956 516.35 445.711 517.837 447.237C519.325 448.781 521.193 449.983 522.738 451.203C520.221 457.935 517.837 464.247 514.939 471.952C511.984 463.961 516.484 458.736 517.856 452.405C513.833 448.953 511.24 444.3 509.447 438.865ZM512.022 453.644C510.439 459.937 509.142 465.086 507.75 470.559H490.932C489.502 465.296 488.034 459.937 486.413 453.93C493.831 449.792 490.856 439.17 498.636 434.726C503.308 435.337 505.138 439.094 505.653 442.583C506.339 447.294 508.361 450.803 512.022 453.644ZM477.051 470.502H468.623C466.792 465.124 470.396 461.463 471.464 455.036C475.373 460.834 476.803 465.124 477.051 470.502ZM530.212 470.559H521.803C521.289 465.258 523.672 461.253 525.998 455.971C528.573 461.177 531.566 464.991 530.212 470.559ZM462.693 385.43C462.712 383.675 463.475 381.921 463.875 380.204C499.38 384.762 529.183 421.167 530.06 452.805C527.638 450.269 524.95 447.675 522.528 444.834C520.717 442.736 518.676 440.524 517.799 437.987C514.653 428.91 508.132 423.494 499.627 419.566C491.066 422.617 485.06 428.262 481.303 436.405C478.348 442.774 478.348 442.774 472.78 447.732C465.782 443.975 462.731 437.835 462.674 430.111C462.578 415.217 462.598 400.324 462.693 385.43ZM467.326 547.642V656.075H425.148C423.508 649.095 423.127 559.427 424.71 547.642H467.326ZM354.044 547.565C355.493 545.506 356.427 543.103 357.686 540.91C365.103 527.904 375.61 518.14 389.224 510.474C391.798 512.285 394.697 513.716 396.794 515.909C402.705 522.087 408.445 528.438 413.955 534.979C417.082 538.679 418.589 543.179 418.57 548.137C418.532 578.65 418.532 609.162 418.532 639.656C418.532 642.669 418.646 645.72 413.231 644.614C413.078 642.135 412.773 639.427 412.754 636.719C412.716 614.483 412.601 592.228 412.773 569.992C412.868 559.141 409.36 549.568 403.678 539.537C402.19 541.329 400.798 542.474 400.055 543.942C395.783 552.562 393.362 561.62 393.419 571.327C393.533 591.999 393.457 612.652 393.457 633.305V644.652H342.832C342.698 641.429 342.47 638.626 342.47 635.842C342.45 610.726 343.118 585.591 342.203 560.533C341.726 547.413 346.531 537.058 353.968 527.37C362.338 516.462 373.093 507.079 388.995 499.661C396.947 503.055 404.231 507.727 409.951 514.803C414.737 520.695 419.943 526.264 424.69 532.176C426.731 534.693 426.445 534.922 422.803 539.956C413.669 526.092 403.468 513.506 389.091 505.039C370.919 515.623 356.542 528.533 350.707 549.415C351.851 548.824 353.395 548.5 354.044 547.565ZM408.445 638.016C408.445 638.607 408.101 639.179 407.663 640.628H398.243C398.053 638.016 397.728 635.575 397.709 633.134C397.671 613.148 397.385 593.124 397.881 573.139C398.053 565.987 400.15 558.893 401.466 551.78C401.599 551.055 402.438 550.445 403.411 549.167C406.595 555.689 408.406 561.944 408.464 568.485C408.597 591.656 408.483 614.845 408.445 638.016ZM334.328 557.73C334.366 548.69 332.039 540.261 328.741 531.966C327.654 529.22 325.919 527.961 323.039 528.362C323.02 528.4 323.02 528.419 323.001 528.457C322.963 528.495 322.906 528.533 322.868 528.571C322.162 531.241 321.609 533.949 320.656 536.524C318.158 543.122 317.109 549.892 317.128 556.948C317.243 584.886 317.147 612.843 317.147 640.781V645.854C313.219 644.709 313.791 642.001 313.772 639.694C313.753 626.364 313.772 613.034 313.772 599.684C313.772 583.494 313.734 567.303 313.791 551.112C313.81 542.416 316.175 534.617 322.868 528.571C322.887 528.514 322.906 528.438 322.925 528.381C322.963 528.381 323.001 528.362 323.039 528.362C323.478 527.103 323.916 525.787 324.908 522.85C331.868 533.034 338.427 541.196 338.332 552.81C338.141 580.442 338.313 608.075 338.217 635.708C338.217 638.683 339.152 641.925 337.131 644.69C333.126 644.366 334.366 641.563 334.366 639.675C334.289 612.366 334.232 585.038 334.328 557.73ZM321.285 558.206C321.266 551.475 322.753 545.143 325.156 538.164C329.446 544.457 328.969 550.922 328.989 557.196C329.084 580.69 329.027 604.166 329.027 627.66V640.285H321.323V632.466C321.323 607.713 321.38 582.96 321.285 558.206ZM318.444 468.481H332.383C332.802 474.698 333.489 480.304 333.431 485.911C333.393 490.297 332.421 494.416 327.654 496.857C324.45 498.517 321.857 501.396 318.806 503.894C317.071 496.514 316.861 477.558 318.444 468.481ZM328.817 519.57C337.302 513.124 346.951 510.302 356.771 508.147C358.506 507.766 360.679 509.31 362.3 509.863C354.978 519.322 347.885 528.476 340.372 538.183C336.539 532.023 332.764 525.94 328.817 519.57ZM396.985 497.506C406.862 492.738 417.14 490.507 427.646 486.903V527.179C422.269 521.229 417.979 515.947 413.116 511.255C408.216 506.526 402.743 502.369 396.985 497.506ZM457.011 538.373C458.593 538.297 460.233 539.594 461.606 541.367H429C438.152 536.676 447.686 538.831 457.011 538.373ZM432.508 534.102V315.518C440.822 314.278 449.174 314.946 458.04 314.927V533.186C449.841 534.998 441.432 533.453 432.508 534.102ZM445.284 149.912C445.589 149.95 445.913 149.988 446.218 150.026C448.506 165.187 450.794 180.348 453.159 196.138H437.58C440.193 180.424 442.748 165.168 445.284 149.912ZM453.559 201.344V221.158H437.809V201.344H453.559ZM433.424 233.783H457.945V284.186H433.252C431.612 276.119 431.669 241.926 433.424 233.783ZM415.938 292.329C417.14 291.337 417.921 290.097 418.722 290.078C436.455 289.945 454.189 289.926 471.922 290.021C473.028 290.021 474.115 291.261 475.945 292.386C466.907 294.388 423.871 294.293 415.938 292.329ZM425.263 298.298C439.087 297.725 451.805 298.202 465.267 297.973C462.731 307.833 457.545 312.085 447.896 310.693C442.691 309.93 437.275 310.56 431.688 310.56C429.61 306.593 427.76 303.046 425.263 298.298ZM427.493 380.128C427.627 382.607 427.856 385.048 427.875 387.508C427.913 401.43 427.684 415.37 427.97 429.31C428.142 437.167 426.14 443.556 419.027 447.675C414.584 445.101 411.286 441.954 409.627 436.614C406.9 427.88 400.264 422.636 391.455 419.871C382.283 423.608 376.029 429.806 372.387 439.437C370.614 444.109 365.999 447.713 362.319 452.252C357.343 424.505 394.392 383.79 427.493 380.128ZM402.286 439.647C401.332 434.631 397.195 431.103 392.656 429.005C385.83 430.55 383.008 435.508 380.872 440.905C378.05 447.98 378.165 448.018 373.016 452.443C374.809 458.183 378.508 463.885 377.04 472.486C372.292 465.277 372.044 458.183 368.116 452.347C369.641 450.688 370.671 448.991 372.177 448.057C375.057 446.245 376.525 443.804 377.288 440.562C378.641 434.688 382.684 430.664 387.241 427.079C390.082 424.829 393.228 424.409 395.917 426.85C399.12 429.787 402.934 432.762 404.574 436.557C407.11 442.393 410.065 447.656 414.756 451.565C412.468 458.278 410.351 464.476 407.529 472.753C406.786 469.472 406.042 468.08 406.309 466.955C407.529 462.111 409.055 457.363 410.656 451.909C406.176 449.296 403.392 445.387 402.286 439.647ZM404.669 453.129C403.029 459.384 401.695 464.495 400.169 470.35C394.925 471.818 389.072 470.559 383.408 470.922C381.826 464.876 380.396 459.48 378.813 453.434C382.207 451.642 384.057 448.667 384.705 444.185C385.201 440.81 388.194 437.797 390.101 434.593C396.451 436.195 398.358 440.695 398.949 445.291C399.464 449.296 401.218 451.623 404.669 453.129ZM359.707 476.528C360.279 476.071 360.756 475.346 361.232 475.346C382.493 475.232 403.773 475.194 425.034 475.194C425.625 475.194 426.216 475.556 427.474 475.956C427.608 477.463 427.779 479.236 427.989 481.639C412.983 486.769 398.11 491.842 384.152 496.609C376.048 491.937 368.44 487.551 359.707 482.517V476.528ZM344.186 491.213C350.764 486.388 357.59 486.769 364.436 490.297C369.127 492.7 373.588 495.561 379.004 498.707C374.732 501.816 371.472 504.219 367.735 506.946C359.573 501.663 351.012 503.932 342.984 507.48C336.253 510.474 330.018 510.474 322.791 507.88C326.205 501.987 332.135 499.432 336.959 495.694C339.19 493.959 341.898 492.891 344.186 491.213ZM320.294 463.561C316.69 464.171 315.202 461.902 314.096 458.354C321.819 456.943 329.427 457.859 338.008 457.821C333.164 466.631 326.071 462.588 320.294 463.561ZM319.264 389.74C319.474 387.699 320.618 385.544 321.914 383.885C324.393 380.7 327.387 380.91 329.713 384.209C333.508 389.568 332.44 395.556 332.173 402.116H319.149C319.149 397.768 318.863 393.725 319.264 389.74ZM310.359 418.517C315.412 415.408 329.999 414.989 339.838 417.83C329.98 419.337 320.16 419.394 310.359 418.517ZM332.173 443.709H317.796V424.104H332.249C334.442 430.531 334.385 437.053 332.173 443.709ZM305.058 450.269C314.23 447.618 338.084 447.885 344.777 450.745C341.821 451.775 339.724 452.824 337.512 453.186C333.489 453.854 309.577 451.775 305.058 450.269ZM288.812 569.572C288.851 565.854 289.499 562.001 290.624 558.473C295.715 542.76 303.628 528.59 315.317 514.536C313.734 520.352 312.152 524.452 311.56 528.686C310.588 535.875 309.749 543.141 309.692 550.388C309.482 578.326 309.615 606.264 309.615 634.202V644.709H289.308C289.117 642.078 288.774 639.637 288.774 637.196C288.717 614.655 288.66 592.113 288.812 569.572ZM270.278 191.676C273.577 194.46 272.891 198.198 273.386 201.554C273.939 205.292 274.626 209.01 275.255 212.748C275.865 216.467 276.514 220.186 277.086 223.923C277.677 227.623 278.23 231.361 278.859 235.537C274.435 237.749 269.725 236.148 263.376 236.834C265.778 221.12 267.99 206.608 270.278 191.676ZM262.88 241.43H278.821V261.053C276.266 261.225 273.577 261.473 270.889 261.568C268.391 261.664 265.912 261.587 262.88 261.587V241.43ZM258.685 273.811H283.035C284.865 281.001 285.132 314.565 283.492 324.309C281.414 324.443 279.259 324.653 277.086 324.672C271.136 324.729 265.168 324.691 258.685 324.691V273.811ZM240.208 332.014C247.263 329.84 282.348 328.867 297.145 330.069C298.156 330.164 299.109 330.851 300.882 331.594C299.395 332.758 298.804 333.635 298.118 333.692C284.122 334.932 247.454 334.092 240.208 332.014ZM253.327 343.132C252.927 342.007 252.488 340.901 251.668 338.727C258.494 337.544 264.71 338.288 270.831 338.154C277.105 338.021 283.397 338.116 290.338 338.116C289.728 343.284 287.02 346.603 284.35 350.646C277.619 350.646 271.575 350.188 265.645 350.76C259.276 351.37 255.386 349.005 253.327 343.132ZM256.149 541.463C260.897 536.447 266.045 538.526 270.507 538.412C275.179 538.278 280.175 537.172 284.636 539.308C284.541 540.033 284.446 540.738 284.331 541.463H256.149ZM284.026 547.146V644.69H258.666V547.146H284.026ZM258.418 355.947C262.422 353.678 266.922 355.222 271.194 354.917C275.255 354.65 279.355 354.86 283.988 354.86V533.797H259.619C257.541 526.416 256.702 401.849 258.418 355.947ZM371.014 693.358C370.919 705.391 370.995 717.424 370.995 730.259H243.107V650.812H417.826C418.036 652.147 418.265 653.577 418.512 655.122C417.407 655.56 416.548 656.19 415.709 656.19C404.288 656.285 392.866 656.285 381.444 656.342C378.374 656.361 375.305 656.571 371.453 656.724C370.538 669.424 371.129 681.401 371.014 693.358ZM414.337 730.278H401.466C401.466 719.236 400.97 708.557 401.695 697.934C402 693.567 404.936 689.353 407.072 684.089C411.61 689.181 414.222 693.625 414.298 699.174C414.432 709.243 414.337 719.312 414.337 730.278ZM442.672 730.316H418.512C418.512 719.942 418.417 709.872 418.532 699.822C418.646 690.917 414.489 684.356 407.854 678.406C400.836 684.623 396.928 691.66 397.156 700.89C397.385 710.368 397.214 719.865 397.214 729.934C390.444 731.307 383.942 730.564 377.535 730.449C375.953 723.222 375.686 671.37 377.059 661.625H442.672V730.316ZM489.102 730.106H477.509C476.994 718.568 476.841 706.917 477.661 695.341C477.909 691.87 480.54 688.571 482.562 684.108C487.615 690.001 489.293 695.169 489.159 701.157C488.949 710.635 489.102 720.113 489.102 730.106ZM495.127 730.831C494.841 727.894 494.441 725.491 494.403 723.088C494.327 715.784 494.46 708.48 494.365 701.176C494.25 692.118 490.094 685.005 483.363 678.464C475.354 684.89 472.189 693.072 471.998 702.607C471.826 711.474 471.96 720.361 471.96 729.763C464.009 731.536 456.21 730.487 448.487 730.468C447.038 723.183 446.638 677.51 447.953 661.892H513.795C514.176 662.254 514.424 662.445 514.615 662.674C514.806 662.921 515.111 663.188 515.111 663.455C515.13 685.348 515.13 707.241 515.13 729.667C508.78 731.727 502.221 730.068 495.127 730.831ZM647.595 650.354C649.215 657.753 649.749 710.559 648.453 729.324C648.243 729.553 648.071 729.839 647.823 730.011C647.576 730.201 647.271 730.392 647.004 730.392C607.037 730.506 567.071 730.583 527.104 730.678H519.344V656.304H507.617C497.149 656.323 486.68 656.285 476.212 656.361C472.951 656.399 471.426 655.198 472.208 651.784C472.398 651.575 472.589 651.327 472.837 651.117C473.066 650.926 473.333 650.678 473.6 650.64C474.858 650.507 476.117 650.354 477.375 650.354H647.595ZM619.431 538.412C624.103 538.24 629.08 537.191 634.667 539.88C627.325 542.264 617.296 542.531 605.359 540.967C609.707 536.371 614.912 538.545 619.431 538.412ZM607.628 355.318H632.931V533.034C624.503 534.941 616.38 533.663 608.372 533.854C606.694 526.531 606.065 374.426 607.628 355.318ZM632.741 644.747H608.563C606.637 638.34 606.008 564.595 607.838 547.394H632.054C633.77 553.611 634.4 624.171 632.741 644.747ZM633.732 350.626C625.762 350.626 617.906 350.836 610.088 350.55C605.149 350.359 603.185 347.308 601.469 338.135C612.281 338.135 622.978 338.116 633.656 338.154C635.448 338.174 637.222 338.441 640.12 338.669C637.813 343.017 635.925 346.526 633.732 350.626Z" fill="#D97662"/>
<path d="M215.858 409.325C222.265 409.954 225.831 414.226 228.367 419.013C232.314 421.091 237.1 417.697 240.837 422.636C232.409 425.287 224.344 423.742 216.507 423.818C208.803 423.914 200.947 424.962 191.49 422.521C194.121 421.034 195.227 419.89 196.371 419.852C202.721 419.661 209.07 419.794 215.42 419.718C217.517 419.699 219.596 419.356 221.96 419.127C219.901 411.918 215.267 414.989 211.454 416.133C209.585 402.784 206.42 398.474 199.193 398.893C192.786 399.275 189.621 403.756 189.049 413.825C184.93 413.291 180.678 409.859 176.712 413.044C175.263 414.207 174.691 416.495 173.852 418.021C177.341 421.549 183.023 417.22 185.235 423.227C177.494 424.276 170.153 424.505 161 422.769C163.517 421.148 164.642 420.5 165.691 419.737C166.835 418.898 168.513 418.135 168.894 416.991C171.316 409.63 176.655 406.56 184.339 406.178C187.161 398.054 192.863 394.05 201.634 394.736C208.403 395.27 212.236 398.951 215.858 409.325Z" fill="#D97662"/>
<path d="M683.328 244.443C672.631 239.256 670.762 239.847 666.891 248.429C669.694 251.766 674.9 247.704 678.58 252.51C670.19 254.932 662.792 254.074 655.279 253.292C655.336 248.486 658.864 250.355 660.466 249.687C662.716 245.988 664.222 241.964 667.044 239.351C669.37 237.215 673.26 236.815 677.722 235.175C680.849 228.233 686.608 223.18 696.37 224.858C702.663 225.926 705.618 228.901 709.146 238.436C717.097 242.04 717.097 242.04 721.674 249.039C725.106 251.022 729.701 248.276 733 251.213C732.542 252.3 732.371 253.234 732.066 253.292C724.572 254.588 692.137 254.169 684.529 252.453C686.836 251.232 688.133 249.993 689.487 249.916C693.911 249.649 698.353 249.821 702.796 249.821C706.877 249.821 710.957 249.821 715.324 249.821C712.54 243.814 712.54 243.814 704.589 246.217C704.436 243.337 704.493 240.648 704.093 238.016C703.311 232.925 698.697 229.13 693.472 228.977C688.114 228.805 683.9 231.456 682.737 236.395C682.26 238.474 683.023 240.915 683.328 244.443Z" fill="#D97662"/>
<path d="M602.442 695.055H576.471C576.929 706.478 575.957 717.386 577.12 728.58C586.101 728.733 594.49 729.343 603.109 728.256C602.766 716.661 603.681 706.001 602.442 695.055ZM597.179 724.232H581.162V700.433C583.736 700.261 586.444 699.994 589.132 699.899C591.63 699.803 594.128 699.88 597.179 699.88V724.232Z" fill="#D97662"/>
<path d="M639.071 698.182C639.052 697.324 638.385 696.485 637.794 695.112H613.177V728.447H639.109C639.109 717.749 639.148 707.965 639.071 698.182ZM633.503 724.251H617.639C615.961 716.7 617.391 708.9 616.762 700.49H633.503V724.251Z" fill="#D97662"/>
<path d="M566.918 694.406C557.499 695.15 549.128 693.586 540.414 695.36C540.414 701.157 540.242 706.516 540.471 711.875C540.7 717.405 539.346 723.088 541.291 728.333H566.213C566.518 727.017 566.88 726.12 566.899 725.243C566.937 715.46 566.918 705.658 566.918 694.406ZM545.333 724.366C544.151 716.223 544.399 708.309 545.143 700.108H560.378C565.755 707.412 559.119 715.765 562.704 723.717C556.679 725.3 551.454 724.576 545.333 724.366Z" fill="#D97662"/>
<path d="M540.91 660.004V686.359H566.422V660.099C557.575 659.527 549.28 659.527 540.91 660.004ZM561.179 682.049H545.677C543.693 676.233 544.971 670.664 544.685 664.619C550.138 663.169 555.325 664.066 561.179 664.066V682.049Z" fill="#D97662"/>
<path d="M577.081 660.824V686.435C585.967 686.607 594.338 687.446 602.842 685.844V661.51C597.179 659.26 587.035 658.974 577.081 660.824ZM597.332 681.343C589.971 682.907 589.609 682.907 581.372 681.286C580.495 675.66 580.228 669.939 581.562 664.275H597.332V681.343Z" fill="#D97662"/>
<path d="M637.851 659.66C629.633 660.004 621.262 658.993 612.51 660.442C613.253 669.558 611.747 677.987 613.539 686.492H637.355C639.682 679.474 639.872 668.452 637.851 659.66ZM633.484 682.068H618.02C615.828 676.366 617.296 670.74 616.953 664.771C622.234 663.036 627.478 664.218 633.484 663.951V682.068Z" fill="#D97662"/>
<path d="M278.859 699.365C278.84 698.163 278.363 696.981 277.982 695.188H252.736V728.619C261.507 728.905 269.878 728.962 278.878 728.561C278.878 718.282 278.916 708.824 278.859 699.365ZM273.1 724.232H257.293C255.615 716.642 257.16 708.843 256.416 700.471H273.1V724.232Z" fill="#D97662"/>
<path d="M313.219 694.959H288.965V728.447H315.012C315.012 722.135 315.26 716.776 314.935 711.436C314.592 705.963 316.556 700.128 313.219 694.959ZM309.673 723.832C304.2 725.472 298.937 724.213 293.217 724.766V700.318H308.91C310.683 707.889 309.368 715.727 309.673 723.832Z" fill="#D97662"/>
<path d="M349.22 694.788H324.603C324.908 706.44 324.126 717.329 325.232 728.886C334.08 728.352 342.412 729.725 350.612 728.104C349.048 716.776 351.317 705.734 349.22 694.788ZM345.368 724.232H329.618C328.016 716.7 329.122 708.9 328.95 700.185H345.368V724.232Z" fill="#D97662"/>
<path d="M278.497 659.527C269.306 660.213 260.935 658.707 252.641 660.595V686.53C261.908 686.492 270.259 687.522 278.897 685.787C278.706 676.862 279.259 668.49 278.497 659.527ZM273.158 681.915H257.121V664.352H273.158V681.915Z" fill="#D97662"/>
<path d="M314.592 659.851C305.764 659.718 297.45 659.451 289.003 659.966V686.168H314.421C315.431 677.3 315.145 668.967 314.592 659.851ZM309.215 681.591C304.315 683.346 299.185 682.545 293.045 681.839V664.39C298.308 663.36 303.514 664.123 309.215 663.856V681.591Z" fill="#D97662"/>
<path d="M349.334 660.194H325.137V686.302H350.192C349.696 676.957 350.84 668.528 349.334 660.194ZM345.406 681.82C340.239 683.117 334.995 682.373 329.313 682.316V664.39C334.499 663.455 339.705 663.894 345.406 664.123V681.82Z" fill="#D97662"/>
<path d="M383.98 562.764C383.618 552.886 377.23 545.544 369.794 538.316C361.785 547.089 355.264 555.346 355.283 567.036C355.302 583.246 355.264 599.437 355.321 615.646C355.321 617.801 355.684 619.937 355.932 622.836C365.313 624.018 374.313 623.694 383.065 623.084C383.656 621.978 384.209 621.444 384.209 620.891C384.228 601.515 384.667 582.121 383.98 562.764ZM380.129 617.839H359.44V606.321C359.44 594.288 359.459 582.235 359.421 570.183C359.402 560.59 363.063 552.619 369.584 545.544C376.277 551.093 379.786 557.901 379.995 565.682C380.434 582.75 380.129 599.837 380.129 617.839Z" fill="#D97662"/>
<path d="M536.314 571.136C536.314 558.378 531.28 547.985 521.212 538.793C512.632 546.707 506.645 555.251 506.301 566.216C505.767 583.322 506.053 600.447 506.149 617.572C506.187 622.512 507.159 623.332 512.537 623.484C517.914 623.637 523.31 623.599 528.706 623.503C535.666 623.37 536.238 622.855 536.276 615.837C536.371 600.943 536.295 586.03 536.314 571.136ZM530.956 617.744H511.373V603.27C511.373 592.495 511.717 581.701 511.297 570.946C510.897 561.201 513.433 552.867 520.888 545.544C526.571 550.807 530.689 556.986 530.842 564.786C531.185 582.178 530.956 599.57 530.956 617.744Z" fill="#D97662"/>
<path d="M445.322 472.924C450.794 478.188 451.157 483.356 450.566 488.772C450.07 489.21 449.65 489.935 449.155 489.973C439.544 490.907 437.79 488.676 441.261 479.618C442.1 477.425 443.72 475.518 445.322 472.924Z" fill="#D97662"/>
<path d="M444.426 439.322C450.604 444.929 451.481 450.097 450.413 456.257C448.411 456.753 446.657 457.554 444.903 457.554C440.841 457.515 438.839 455.341 439.811 451.661C440.803 447.885 442.519 444.319 444.426 439.322Z" fill="#D97662"/>
<path d="M444.083 372.767C450.737 377.764 451.214 383.027 450.566 389.682C448.087 390.064 445.741 390.827 443.472 390.674C440.46 390.464 439.011 388.214 439.773 385.354C440.784 381.52 442.328 377.821 444.083 372.767Z" fill="#D97662"/>
<path d="M446.161 407.017C450.699 411.251 451.405 416.572 450.47 422.941C448.697 423.189 446.924 423.723 445.189 423.647C440.288 423.418 439.506 422.274 440.479 417.163C441.203 413.215 441.28 408.848 446.161 407.017Z" fill="#D97662"/>
<path d="M620.766 391.017C622.006 393.287 623.455 395.27 624.236 397.482C627.478 406.674 626.086 408.333 616.037 407.78C613.616 399.313 614.073 397.539 620.766 391.017Z" fill="#D97662"/>
<path d="M620.766 457.363C624.103 463.294 627.421 468.195 623.607 474.602C621.033 474.602 618.592 474.602 616.209 474.602C612.796 471.189 614.435 464.19 620.766 457.363Z" fill="#D97662"/>
<path d="M626.448 507.48C621.662 507.48 618.859 507.48 615.732 507.48C613.444 501.606 615.198 496.667 618.745 491.518C626.181 494.683 624.694 500.996 626.448 507.48Z" fill="#D97662"/>
<path d="M614.931 440.219C614.092 433.773 615.065 428.872 620.385 424.543C621.929 427.079 623.378 428.986 624.313 431.122C625.571 433.983 627.268 437.396 624.294 439.856C621.376 442.278 617.925 441.191 614.931 440.219Z" fill="#D97662"/>
<path d="M266.198 474.03C264.977 467.947 265.759 462.493 271.48 457.363C272.948 459.861 274.492 461.768 275.274 463.961C278.783 473.706 277.219 475.461 266.198 474.03Z" fill="#D97662"/>
<path d="M266.236 407.895C265.225 400.991 265.645 395.423 270.984 391.208C275.56 393.84 275.522 398.378 276.704 402.097C277.905 405.854 276.094 407.78 271.823 408.181C270.278 408.314 268.677 408.028 266.236 407.895Z" fill="#D97662"/>
<path d="M271.327 424.505C276.113 429.215 277.047 434.116 276.704 440.543C273.272 440.714 270.069 440.867 266.541 441.039C264.768 434.383 266.198 429.444 271.327 424.505Z" fill="#D97662"/>
<path d="M270.927 491.461C275.999 497.124 276.514 498.555 276.533 506.374C273.539 508.681 270.202 507.804 266.503 507.175C264.615 501.206 266.236 496.324 270.927 491.461Z" fill="#D97662"/>
</svg>
