<svg width="48" height="46" viewBox="0 0 48 46" fill="none" xmlns="http://www.w3.org/2000/svg">
<path d="M0.0154613 22.9586C0.0154613 17.4201 0.0154613 11.8817 0.0154613 6.35503C0.0154613 3.30178 1.99644 0.840237 5.02831 0.153846C5.46316 0.0591716 5.92217 0.0118343 6.3691 0.0118343C17.7839 0 29.2108 0 40.6256 0C44.0682 0 46.9309 2.81657 46.9551 6.24852C46.9672 7.92899 46.9792 9.6213 46.9792 11.3018C46.9913 19.4911 47.0034 27.6923 47.0034 35.8817C47.0034 37.2663 47.0034 38.6627 46.9672 40.0473C46.943 41.2781 46.5081 42.3787 45.7834 43.3728C44.4547 45.2071 42.365 46 40.4806 46C29.2953 45.9763 18.1221 45.9763 6.93682 45.9882C5.7289 45.9882 4.5693 45.858 3.49426 45.2899C1.22338 44.0828 0.0154613 42.2012 0.00338216 39.6686C-0.008697 34.0947 0.0154613 28.5207 0.0154613 22.9586ZM40.2028 10.4734C40.2149 8.99408 39.4298 8.42603 38.2218 8.76923C38.0407 8.81657 37.8595 8.89941 37.6904 8.97041C32.605 10.8521 27.5197 12.7337 22.4465 14.6154C18.2792 16.1657 14.0998 17.7041 9.93245 19.2544C8.47087 19.7988 6.99722 20.3195 5.53564 20.8876C5.23366 21.0059 4.9196 21.2071 4.71425 21.4556C4.1103 22.1775 4.46059 23.1243 5.439 23.4201C7.96355 24.2012 10.5002 24.9704 13.0368 25.7396C13.3267 25.8225 13.4596 25.9763 13.5441 26.2367C14.2809 28.4852 15.0299 30.7337 15.7788 32.9704C16.0928 33.9053 16.3948 34.8402 16.7813 35.7515C17.1075 36.5325 17.9047 36.7219 18.6294 36.2722C18.8831 36.1183 19.1247 35.929 19.3421 35.7278C20.6346 34.5207 21.9271 33.3018 23.2074 32.0828C23.3886 31.9172 23.4973 31.8935 23.7027 32.0473C26.348 33.9763 28.9934 35.8935 31.6629 37.7988C31.9648 38.0118 32.3393 38.1657 32.6896 38.2604C33.511 38.4734 34.127 38.1775 34.5135 37.4319C34.6585 37.1479 34.7672 36.8284 34.8276 36.5089C35.5161 33.2071 36.1925 29.9172 36.8811 26.6154C37.8715 21.8462 38.85 17.0651 39.8405 12.2959C39.9733 11.6095 40.1062 10.9231 40.2028 10.4734Z" fill="#FFF2E9"/>
<path d="M17.7725 34.4735C17.4343 33.4558 17.0961 32.438 16.7578 31.4203C16.1176 29.4795 15.4654 27.5505 14.8131 25.6096C14.7406 25.3848 14.7648 25.2664 14.9822 25.1363C19.5844 22.3197 24.1744 19.4913 28.7766 16.6747C30.1416 15.8345 31.4944 14.9943 32.8594 14.1658C33.0406 14.0593 33.2217 13.941 33.415 13.8937C33.5479 13.8582 33.7774 13.8818 33.8378 13.9765C33.9223 14.083 33.9103 14.296 33.874 14.438C33.8378 14.5564 33.717 14.6629 33.6083 14.7457C30.4677 17.515 27.315 20.2842 24.1744 23.0653C22.3988 24.6274 20.6232 26.2013 18.8355 27.7635C18.6543 27.9173 18.5818 28.0948 18.5576 28.3197C18.3281 30.296 18.0986 32.2724 17.8812 34.2487C17.8691 34.3197 17.857 34.4025 17.8329 34.4735C17.8087 34.4617 17.7966 34.4617 17.7725 34.4735Z" fill="#FFF2E9"/>
</svg>
