<svg width="633" height="134" viewBox="0 0 633 134" fill="none" xmlns="http://www.w3.org/2000/svg">
<path d="M37.9171 97.8H44.3571V130H36.9971V105.574L31.2931 107.138L29.4991 100.836L37.9171 97.8ZM48.6038 130V124.664L59.4138 113.44C61.5911 111.201 62.6798 109.3 62.6798 107.736C62.6798 106.724 62.3731 105.911 61.7598 105.298C61.1465 104.654 60.3031 104.332 59.2298 104.332C57.0831 104.332 55.5038 105.497 54.4918 107.828L48.2818 104.194C49.2631 101.894 50.7351 100.146 52.6978 98.95C54.6605 97.754 56.8071 97.156 59.1378 97.156C62.1431 97.156 64.7038 98.0913 66.8198 99.962C68.9665 101.802 70.0398 104.286 70.0398 107.414C70.0398 110.818 68.3685 114.191 65.0258 117.534L59.6898 122.916H70.4998V130H48.6038ZM81.6411 113.716C80.7825 114.575 79.7551 115.004 78.5591 115.004C77.3631 115.004 76.3358 114.575 75.4771 113.716C74.6185 112.857 74.1891 111.83 74.1891 110.634C74.1891 109.438 74.6185 108.411 75.4771 107.552C76.3358 106.693 77.3631 106.264 78.5591 106.264C79.7551 106.264 80.7825 106.693 81.6411 107.552C82.4998 108.411 82.9291 109.438 82.9291 110.634C82.9291 111.83 82.4998 112.857 81.6411 113.716ZM81.6411 129.356C80.7825 130.215 79.7551 130.644 78.5591 130.644C77.3631 130.644 76.3358 130.215 75.4771 129.356C74.6185 128.497 74.1891 127.47 74.1891 126.274C74.1891 125.078 74.6185 124.051 75.4771 123.192C76.3358 122.333 77.3631 121.904 78.5591 121.904C79.7551 121.904 80.7825 122.333 81.6411 123.192C82.4998 124.051 82.9291 125.078 82.9291 126.274C82.9291 127.47 82.4998 128.497 81.6411 129.356ZM109.116 126.09C106.816 129.126 103.611 130.644 99.5017 130.644C95.3924 130.644 92.1724 129.126 89.8417 126.09C87.5417 123.023 86.3917 118.96 86.3917 113.9C86.3917 108.84 87.5417 104.792 89.8417 101.756C92.1724 98.6893 95.3924 97.156 99.5017 97.156C103.611 97.156 106.816 98.6893 109.116 101.756C111.446 104.792 112.612 108.84 112.612 113.9C112.612 118.96 111.446 123.023 109.116 126.09ZM93.7517 113.9C93.7517 120.279 95.6684 123.468 99.5017 123.468C103.335 123.468 105.252 120.279 105.252 113.9C105.252 107.521 103.335 104.332 99.5017 104.332C95.6684 104.332 93.7517 107.521 93.7517 113.9ZM138.09 126.09C135.79 129.126 132.586 130.644 128.476 130.644C124.367 130.644 121.147 129.126 118.816 126.09C116.516 123.023 115.366 118.96 115.366 113.9C115.366 108.84 116.516 104.792 118.816 101.756C121.147 98.6893 124.367 97.156 128.476 97.156C132.586 97.156 135.79 98.6893 138.09 101.756C140.421 104.792 141.586 108.84 141.586 113.9C141.586 118.96 140.421 123.023 138.09 126.09ZM122.726 113.9C122.726 120.279 124.643 123.468 128.476 123.468C132.31 123.468 134.226 120.279 134.226 113.9C134.226 107.521 132.31 104.332 128.476 104.332C124.643 104.332 122.726 107.521 122.726 113.9Z" fill="#222222"/>
<path d="M486.065 130V124.664L496.875 113.44C499.052 111.201 500.141 109.3 500.141 107.736C500.141 106.724 499.834 105.911 499.221 105.298C498.607 104.654 497.764 104.332 496.691 104.332C494.544 104.332 492.965 105.497 491.953 107.828L485.743 104.194C486.724 101.894 488.196 100.146 490.159 98.95C492.121 97.754 494.268 97.156 496.599 97.156C499.604 97.156 502.165 98.0913 504.281 99.962C506.427 101.802 507.501 104.286 507.501 107.414C507.501 110.818 505.829 114.191 502.487 117.534L497.151 122.916H507.961V130H486.065ZM533.235 126.09C530.935 129.126 527.73 130.644 523.621 130.644C519.512 130.644 516.292 129.126 513.961 126.09C511.661 123.023 510.511 118.96 510.511 113.9C510.511 108.84 511.661 104.792 513.961 101.756C516.292 98.6893 519.512 97.156 523.621 97.156C527.73 97.156 530.935 98.6893 533.235 101.756C535.566 104.792 536.731 108.84 536.731 113.9C536.731 118.96 535.566 123.023 533.235 126.09ZM517.871 113.9C517.871 120.279 519.788 123.468 523.621 123.468C527.454 123.468 529.371 120.279 529.371 113.9C529.371 107.521 527.454 104.332 523.621 104.332C519.788 104.332 517.871 107.521 517.871 113.9ZM547.627 113.716C546.769 114.575 545.741 115.004 544.545 115.004C543.349 115.004 542.322 114.575 541.463 113.716C540.605 112.857 540.175 111.83 540.175 110.634C540.175 109.438 540.605 108.411 541.463 107.552C542.322 106.693 543.349 106.264 544.545 106.264C545.741 106.264 546.769 106.693 547.627 107.552C548.486 108.411 548.915 109.438 548.915 110.634C548.915 111.83 548.486 112.857 547.627 113.716ZM547.627 129.356C546.769 130.215 545.741 130.644 544.545 130.644C543.349 130.644 542.322 130.215 541.463 129.356C540.605 128.497 540.175 127.47 540.175 126.274C540.175 125.078 540.605 124.051 541.463 123.192C542.322 122.333 543.349 121.904 544.545 121.904C545.741 121.904 546.769 122.333 547.627 123.192C548.486 124.051 548.915 125.078 548.915 126.274C548.915 127.47 548.486 128.497 547.627 129.356ZM575.102 126.09C572.802 129.126 569.597 130.644 565.488 130.644C561.379 130.644 558.159 129.126 555.828 126.09C553.528 123.023 552.378 118.96 552.378 113.9C552.378 108.84 553.528 104.792 555.828 101.756C558.159 98.6893 561.379 97.156 565.488 97.156C569.597 97.156 572.802 98.6893 575.102 101.756C577.433 104.792 578.598 108.84 578.598 113.9C578.598 118.96 577.433 123.023 575.102 126.09ZM559.738 113.9C559.738 120.279 561.655 123.468 565.488 123.468C569.321 123.468 571.238 120.279 571.238 113.9C571.238 107.521 569.321 104.332 565.488 104.332C561.655 104.332 559.738 107.521 559.738 113.9ZM604.077 126.09C601.777 129.126 598.572 130.644 594.463 130.644C590.353 130.644 587.133 129.126 584.803 126.09C582.503 123.023 581.353 118.96 581.353 113.9C581.353 108.84 582.503 104.792 584.803 101.756C587.133 98.6893 590.353 97.156 594.463 97.156C598.572 97.156 601.777 98.6893 604.077 101.756C606.407 104.792 607.573 108.84 607.573 113.9C607.573 118.96 606.407 123.023 604.077 126.09ZM588.713 113.9C588.713 120.279 590.629 123.468 594.463 123.468C598.296 123.468 600.213 120.279 600.213 113.9C600.213 107.521 598.296 104.332 594.463 104.332C590.629 104.332 588.713 107.521 588.713 113.9Z" fill="#222222"/>
<path d="M258.211 19.28C256.691 19.28 255.424 18.7733 254.411 17.76C253.411 16.7467 252.911 15.4933 252.911 14C252.911 12.5067 253.411 11.2533 254.411 10.24C255.424 9.22667 256.691 8.72 258.211 8.72C259.171 8.72 260.051 8.95333 260.851 9.42C261.664 9.88667 262.291 10.5067 262.731 11.28L260.111 12.8C259.751 12.0533 259.104 11.68 258.171 11.68C257.517 11.68 256.977 11.9 256.551 12.34C256.124 12.7667 255.911 13.32 255.911 14C255.911 14.68 256.124 15.24 256.551 15.68C256.977 16.1067 257.517 16.32 258.171 16.32C259.117 16.32 259.764 15.9467 260.111 15.2L262.731 16.7C262.291 17.4867 261.671 18.1133 260.871 18.58C260.071 19.0467 259.184 19.28 258.211 19.28ZM268.583 19.28C266.956 19.28 265.656 18.7667 264.683 17.74C263.723 16.7133 263.243 15.4133 263.243 13.84C263.243 12.1333 263.496 10.8133 264.003 9.88C264.509 8.94667 265.529 8.1 267.063 7.34C267.236 7.26 267.509 7.12667 267.883 6.94C268.269 6.75333 268.516 6.63333 268.623 6.58C268.743 6.51333 268.929 6.41333 269.183 6.28C269.436 6.13333 269.603 6.02 269.683 5.94C269.776 5.84667 269.896 5.72667 270.043 5.58C270.203 5.43333 270.323 5.28667 270.403 5.14C270.496 4.98 270.583 4.8 270.663 4.6L273.143 6.02C272.956 6.80667 272.569 7.43333 271.983 7.9C271.409 8.35333 270.543 8.8 269.383 9.24C268.556 9.54667 267.956 9.85333 267.583 10.16C267.223 10.4533 266.963 10.7933 266.803 11.18C267.509 10.5533 268.423 10.24 269.543 10.24C270.569 10.24 271.516 10.64 272.383 11.44C273.249 12.2267 273.683 13.28 273.683 14.6C273.683 15.9733 273.216 17.1 272.283 17.98C271.363 18.8467 270.129 19.28 268.583 19.28ZM267.003 16C267.429 16.3867 267.949 16.58 268.563 16.58C269.176 16.58 269.683 16.3933 270.083 16.02C270.483 15.6467 270.683 15.1733 270.683 14.6C270.683 14.0133 270.476 13.5333 270.063 13.16C269.649 12.7733 269.129 12.58 268.503 12.58C267.943 12.58 267.449 12.76 267.023 13.12C266.596 13.4667 266.383 13.9333 266.383 14.52C266.383 15.12 266.589 15.6133 267.003 16ZM283.65 17.76C282.624 18.7733 281.37 19.28 279.89 19.28C278.41 19.28 277.157 18.7733 276.13 17.76C275.104 16.7333 274.59 15.48 274.59 14C274.59 12.52 275.104 11.2733 276.13 10.26C277.157 9.23333 278.41 8.72 279.89 8.72C281.37 8.72 282.624 9.23333 283.65 10.26C284.677 11.2733 285.19 12.52 285.19 14C285.19 15.48 284.677 16.7333 283.65 17.76ZM278.25 15.7C278.69 16.14 279.237 16.36 279.89 16.36C280.544 16.36 281.09 16.14 281.53 15.7C281.97 15.26 282.19 14.6933 282.19 14C282.19 13.3067 281.97 12.74 281.53 12.3C281.09 11.86 280.544 11.64 279.89 11.64C279.237 11.64 278.69 11.86 278.25 12.3C277.81 12.74 277.59 13.3067 277.59 14C277.59 14.6933 277.81 15.26 278.25 15.7ZM292.867 8.72C294.187 8.72 295.314 9.23333 296.247 10.26C297.18 11.2733 297.647 12.52 297.647 14C297.647 15.48 297.18 16.7333 296.247 17.76C295.314 18.7733 294.187 19.28 292.867 19.28C291.587 19.28 290.594 18.8733 289.887 18.06V23H286.887V9H289.887V9.94C290.594 9.12667 291.587 8.72 292.867 8.72ZM290.547 15.78C291 16.22 291.574 16.44 292.267 16.44C292.96 16.44 293.527 16.22 293.967 15.78C294.42 15.34 294.647 14.7467 294.647 14C294.647 13.2533 294.42 12.66 293.967 12.22C293.527 11.78 292.96 11.56 292.267 11.56C291.574 11.56 291 11.78 290.547 12.22C290.107 12.66 289.887 13.2533 289.887 14C289.887 14.7467 290.107 15.34 290.547 15.78ZM311.348 9V11.88H307.348V19H304.348V9H311.348ZM320.818 17.76C319.792 18.7733 318.538 19.28 317.058 19.28C315.578 19.28 314.325 18.7733 313.298 17.76C312.272 16.7333 311.758 15.48 311.758 14C311.758 12.52 312.272 11.2733 313.298 10.26C314.325 9.23333 315.578 8.72 317.058 8.72C318.538 8.72 319.792 9.23333 320.818 10.26C321.845 11.2733 322.358 12.52 322.358 14C322.358 15.48 321.845 16.7333 320.818 17.76ZM315.418 15.7C315.858 16.14 316.405 16.36 317.058 16.36C317.712 16.36 318.258 16.14 318.698 15.7C319.138 15.26 319.358 14.6933 319.358 14C319.358 13.3067 319.138 12.74 318.698 12.3C318.258 11.86 317.712 11.64 317.058 11.64C316.405 11.64 315.858 11.86 315.418 12.3C314.978 12.74 314.758 13.3067 314.758 14C314.758 14.6933 314.978 15.26 315.418 15.7ZM328.855 19.28C327.335 19.28 326.068 18.7733 325.055 17.76C324.055 16.7467 323.555 15.4933 323.555 14C323.555 12.5067 324.055 11.2533 325.055 10.24C326.068 9.22667 327.335 8.72 328.855 8.72C329.815 8.72 330.695 8.95333 331.495 9.42C332.308 9.88667 332.935 10.5067 333.375 11.28L330.755 12.8C330.395 12.0533 329.748 11.68 328.815 11.68C328.162 11.68 327.622 11.9 327.195 12.34C326.768 12.7667 326.555 13.32 326.555 14C326.555 14.68 326.768 15.24 327.195 15.68C327.622 16.1067 328.162 16.32 328.815 16.32C329.762 16.32 330.408 15.9467 330.755 15.2L333.375 16.7C332.935 17.4867 332.315 18.1133 331.515 18.58C330.715 19.0467 329.828 19.28 328.855 19.28ZM342.682 9V11.88H339.702V19H336.702V11.88H333.682V9H342.682ZM346.266 15.2C346.613 16.1333 347.413 16.6 348.666 16.6C349.48 16.6 350.12 16.3467 350.586 15.84L352.986 17.22C352 18.5933 350.546 19.28 348.626 19.28C346.946 19.28 345.6 18.78 344.586 17.78C343.586 16.78 343.086 15.52 343.086 14C343.086 12.4933 343.58 11.24 344.566 10.24C345.566 9.22667 346.846 8.72 348.406 8.72C349.86 8.72 351.066 9.22667 352.026 10.24C353 11.24 353.486 12.4933 353.486 14C353.486 14.4267 353.446 14.8267 353.366 15.2H346.266ZM346.206 12.96H350.506C350.213 11.9067 349.506 11.38 348.386 11.38C347.226 11.38 346.5 11.9067 346.206 12.96ZM356.888 7.82V5.22H362.888V7.82H356.888ZM362.388 9H364.588V19H361.668V14L357.388 19H355.188V9H358.108V14L362.388 9Z" fill="#3E3E3E"/>
<path d="M494.917 13.8H501.357V46H493.997V21.574L488.293 23.138L486.499 16.836L494.917 13.8ZM505.604 46V40.664L516.414 29.44C518.591 27.2013 519.68 25.3 519.68 23.736C519.68 22.724 519.373 21.9113 518.76 21.298C518.146 20.654 517.303 20.332 516.23 20.332C514.083 20.332 512.504 21.4973 511.492 23.828L505.282 20.194C506.263 17.894 507.735 16.146 509.698 14.95C511.66 13.754 513.807 13.156 516.138 13.156C519.143 13.156 521.704 14.0913 523.82 15.962C525.966 17.802 527.04 20.286 527.04 23.414C527.04 26.818 525.368 30.1913 522.026 33.534L516.69 38.916H527.5V46H505.604ZM538.641 29.716C537.782 30.5747 536.755 31.004 535.559 31.004C534.363 31.004 533.336 30.5747 532.477 29.716C531.618 28.8573 531.189 27.83 531.189 26.634C531.189 25.438 531.618 24.4107 532.477 23.552C533.336 22.6933 534.363 22.264 535.559 22.264C536.755 22.264 537.782 22.6933 538.641 23.552C539.5 24.4107 539.929 25.438 539.929 26.634C539.929 27.83 539.5 28.8573 538.641 29.716ZM538.641 45.356C537.782 46.2147 536.755 46.644 535.559 46.644C534.363 46.644 533.336 46.2147 532.477 45.356C531.618 44.4973 531.189 43.47 531.189 42.274C531.189 41.078 531.618 40.0507 532.477 39.192C533.336 38.3333 534.363 37.904 535.559 37.904C536.755 37.904 537.782 38.3333 538.641 39.192C539.5 40.0507 539.929 41.078 539.929 42.274C539.929 43.47 539.5 44.4973 538.641 45.356ZM566.116 42.09C563.816 45.126 560.611 46.644 556.502 46.644C552.392 46.644 549.172 45.126 546.842 42.09C544.542 39.0233 543.392 34.96 543.392 29.9C543.392 24.84 544.542 20.792 546.842 17.756C549.172 14.6893 552.392 13.156 556.502 13.156C560.611 13.156 563.816 14.6893 566.116 17.756C568.446 20.792 569.612 24.84 569.612 29.9C569.612 34.96 568.446 39.0233 566.116 42.09ZM550.752 29.9C550.752 36.2787 552.668 39.468 556.502 39.468C560.335 39.468 562.252 36.2787 562.252 29.9C562.252 23.5213 560.335 20.332 556.502 20.332C552.668 20.332 550.752 23.5213 550.752 29.9ZM595.09 42.09C592.79 45.126 589.586 46.644 585.476 46.644C581.367 46.644 578.147 45.126 575.816 42.09C573.516 39.0233 572.366 34.96 572.366 29.9C572.366 24.84 573.516 20.792 575.816 17.756C578.147 14.6893 581.367 13.156 585.476 13.156C589.586 13.156 592.79 14.6893 595.09 17.756C597.421 20.792 598.586 24.84 598.586 29.9C598.586 34.96 597.421 39.0233 595.09 42.09ZM579.726 29.9C579.726 36.2787 581.643 39.468 585.476 39.468C589.31 39.468 591.226 36.2787 591.226 29.9C591.226 23.5213 589.31 20.332 585.476 20.332C581.643 20.332 579.726 23.5213 579.726 29.9Z" fill="#222222"/>
<path d="M209.838 100.28C208.318 100.28 207.051 99.7733 206.038 98.76C205.038 97.7467 204.538 96.4933 204.538 95C204.538 93.5067 205.038 92.2533 206.038 91.24C207.051 90.2267 208.318 89.72 209.838 89.72C210.798 89.72 211.678 89.9533 212.478 90.42C213.291 90.8867 213.918 91.5067 214.358 92.28L211.738 93.8C211.378 93.0533 210.731 92.68 209.798 92.68C209.144 92.68 208.604 92.9 208.178 93.34C207.751 93.7667 207.538 94.32 207.538 95C207.538 95.68 207.751 96.24 208.178 96.68C208.604 97.1067 209.144 97.32 209.798 97.32C210.744 97.32 211.391 96.9467 211.738 96.2L214.358 97.7C213.918 98.4867 213.298 99.1133 212.498 99.58C211.698 100.047 210.811 100.28 209.838 100.28ZM218.05 96.2C218.396 97.1333 219.196 97.6 220.45 97.6C221.263 97.6 221.903 97.3467 222.37 96.84L224.77 98.22C223.783 99.5933 222.33 100.28 220.41 100.28C218.73 100.28 217.383 99.78 216.37 98.78C215.37 97.78 214.87 96.52 214.87 95C214.87 93.4933 215.363 92.24 216.35 91.24C217.35 90.2267 218.63 89.72 220.19 89.72C221.643 89.72 222.85 90.2267 223.81 91.24C224.783 92.24 225.27 93.4933 225.27 95C225.27 95.4267 225.23 95.8267 225.15 96.2H218.05ZM217.99 93.96H222.29C221.996 92.9067 221.29 92.38 220.17 92.38C219.01 92.38 218.283 92.9067 217.99 93.96ZM236.571 100H233.171L229.971 95.58V100H226.971V90H229.971V94.38L232.971 90H236.471L232.831 95L236.571 100ZM243.654 89.72C244.974 89.72 246.101 90.2333 247.034 91.26C247.968 92.2733 248.434 93.52 248.434 95C248.434 96.48 247.968 97.7333 247.034 98.76C246.101 99.7733 244.974 100.28 243.654 100.28C242.374 100.28 241.381 99.8733 240.674 99.06V104H237.674V90H240.674V90.94C241.381 90.1267 242.374 89.72 243.654 89.72ZM241.334 96.78C241.788 97.22 242.361 97.44 243.054 97.44C243.748 97.44 244.314 97.22 244.754 96.78C245.208 96.34 245.434 95.7467 245.434 95C245.434 94.2533 245.208 93.66 244.754 93.22C244.314 92.78 243.748 92.56 243.054 92.56C242.361 92.56 241.788 92.78 241.334 93.22C240.894 93.66 240.674 94.2533 240.674 95C240.674 95.7467 240.894 96.34 241.334 96.78ZM252.815 96.2C253.162 97.1333 253.962 97.6 255.215 97.6C256.028 97.6 256.668 97.3467 257.135 96.84L259.535 98.22C258.548 99.5933 257.095 100.28 255.175 100.28C253.495 100.28 252.148 99.78 251.135 98.78C250.135 97.78 249.635 96.52 249.635 95C249.635 93.4933 250.128 92.24 251.115 91.24C252.115 90.2267 253.395 89.72 254.955 89.72C256.408 89.72 257.615 90.2267 258.575 91.24C259.548 92.24 260.035 93.4933 260.035 95C260.035 95.4267 259.995 95.8267 259.915 96.2H252.815ZM252.755 93.96H257.055C256.762 92.9067 256.055 92.38 254.935 92.38C253.775 92.38 253.048 92.9067 252.755 93.96ZM269.446 90V92.88H266.466V100H263.466V92.88H260.446V90H269.446ZM277.141 90H280.141V100H277.141V96.4H273.741V100H270.741V90H273.741V93.6H277.141V90ZM290.902 98.76C289.876 99.7733 288.622 100.28 287.142 100.28C285.662 100.28 284.409 99.7733 283.382 98.76C282.356 97.7333 281.842 96.48 281.842 95C281.842 93.52 282.356 92.2733 283.382 91.26C284.409 90.2333 285.662 89.72 287.142 89.72C288.622 89.72 289.876 90.2333 290.902 91.26C291.929 92.2733 292.442 93.52 292.442 95C292.442 96.48 291.929 97.7333 290.902 98.76ZM285.502 96.7C285.942 97.14 286.489 97.36 287.142 97.36C287.796 97.36 288.342 97.14 288.782 96.7C289.222 96.26 289.442 95.6933 289.442 95C289.442 94.3067 289.222 93.74 288.782 93.3C288.342 92.86 287.796 92.64 287.142 92.64C286.489 92.64 285.942 92.86 285.502 93.3C285.062 93.74 284.842 94.3067 284.842 95C284.842 95.6933 285.062 96.26 285.502 96.7ZM296.819 96.2C297.166 97.1333 297.966 97.6 299.219 97.6C300.032 97.6 300.672 97.3467 301.139 96.84L303.539 98.22C302.552 99.5933 301.099 100.28 299.179 100.28C297.499 100.28 296.152 99.78 295.139 98.78C294.139 97.78 293.639 96.52 293.639 95C293.639 93.4933 294.132 92.24 295.119 91.24C296.119 90.2267 297.399 89.72 298.959 89.72C300.412 89.72 301.619 90.2267 302.579 91.24C303.552 92.24 304.039 93.4933 304.039 95C304.039 95.4267 303.999 95.8267 303.919 96.2H296.819ZM296.759 93.96H301.059C300.766 92.9067 300.059 92.38 298.939 92.38C297.779 92.38 297.052 92.9067 296.759 93.96ZM321.341 90V100H318.461V94.84L316.221 98.32H315.861L313.621 94.84V100H310.741V90H313.621L316.041 93.78L318.461 90H321.341ZM326.214 96.2C326.56 97.1333 327.36 97.6 328.614 97.6C329.427 97.6 330.067 97.3467 330.534 96.84L332.934 98.22C331.947 99.5933 330.494 100.28 328.574 100.28C326.894 100.28 325.547 99.78 324.534 98.78C323.534 97.78 323.034 96.52 323.034 95C323.034 93.4933 323.527 92.24 324.514 91.24C325.514 90.2267 326.794 89.72 328.354 89.72C329.807 89.72 331.014 90.2267 331.974 91.24C332.947 92.24 333.434 93.4933 333.434 95C333.434 95.4267 333.394 95.8267 333.314 96.2H326.214ZM326.154 93.96H330.454C330.16 92.9067 329.454 92.38 328.334 92.38C327.174 92.38 326.447 92.9067 326.154 93.96ZM341.115 89.72C342.435 89.72 343.562 90.2333 344.495 91.26C345.428 92.2733 345.895 93.52 345.895 95C345.895 96.48 345.428 97.7333 344.495 98.76C343.562 99.7733 342.435 100.28 341.115 100.28C339.835 100.28 338.842 99.8733 338.135 99.06V104H335.135V90H338.135V90.94C338.842 90.1267 339.835 89.72 341.115 89.72ZM338.795 96.78C339.248 97.22 339.822 97.44 340.515 97.44C341.208 97.44 341.775 97.22 342.215 96.78C342.668 96.34 342.895 95.7467 342.895 95C342.895 94.2533 342.668 93.66 342.215 93.22C341.775 92.78 341.208 92.56 340.515 92.56C339.822 92.56 339.248 92.78 338.795 93.22C338.355 93.66 338.135 94.2533 338.135 95C338.135 95.7467 338.355 96.34 338.795 96.78ZM356.156 98.76C355.129 99.7733 353.876 100.28 352.396 100.28C350.916 100.28 349.663 99.7733 348.636 98.76C347.609 97.7333 347.096 96.48 347.096 95C347.096 93.52 347.609 92.2733 348.636 91.26C349.663 90.2333 350.916 89.72 352.396 89.72C353.876 89.72 355.129 90.2333 356.156 91.26C357.183 92.2733 357.696 93.52 357.696 95C357.696 96.48 357.183 97.7333 356.156 98.76ZM350.756 96.7C351.196 97.14 351.743 97.36 352.396 97.36C353.049 97.36 353.596 97.14 354.036 96.7C354.476 96.26 354.696 95.6933 354.696 95C354.696 94.3067 354.476 93.74 354.036 93.3C353.596 92.86 353.049 92.64 352.396 92.64C351.743 92.64 351.196 92.86 350.756 93.3C350.316 93.74 350.096 94.3067 350.096 95C350.096 95.6933 350.316 96.26 350.756 96.7ZM368.793 90V100H365.793V92.8H362.393V100H359.393V90H368.793ZM376.975 89.72C378.295 89.72 379.421 90.2333 380.355 91.26C381.288 92.2733 381.755 93.52 381.755 95C381.755 96.48 381.288 97.7333 380.355 98.76C379.421 99.7733 378.295 100.28 376.975 100.28C375.695 100.28 374.701 99.8733 373.995 99.06V104H370.995V90H373.995V90.94C374.701 90.1267 375.695 89.72 376.975 89.72ZM374.655 96.78C375.108 97.22 375.681 97.44 376.375 97.44C377.068 97.44 377.635 97.22 378.075 96.78C378.528 96.34 378.755 95.7467 378.755 95C378.755 94.2533 378.528 93.66 378.075 93.22C377.635 92.78 377.068 92.56 376.375 92.56C375.681 92.56 375.108 92.78 374.655 93.22C374.215 93.66 373.995 94.2533 373.995 95C373.995 95.7467 374.215 96.34 374.655 96.78ZM390.655 90H392.855V100H389.935V95L385.655 100H383.455V90H386.375V95L390.655 90ZM403.357 90V100H400.437V97.12H399.817L397.757 100H394.357L396.697 96.7C396.097 96.3933 395.624 95.9533 395.277 95.38C394.93 94.8067 394.757 94.2 394.757 93.56C394.757 92.6133 395.09 91.7867 395.757 91.08C396.424 90.36 397.33 90 398.477 90H403.357ZM398.737 92.64C398.417 92.64 398.157 92.7333 397.957 92.92C397.77 93.0933 397.677 93.34 397.677 93.66C397.677 93.9667 397.77 94.2067 397.957 94.38C398.157 94.5533 398.417 94.64 398.737 94.64H400.437V92.64H398.737ZM413.665 90V92.88H410.685V100H407.685V92.88H404.665V90H413.665ZM422.159 90H424.359V100H421.439V95L417.159 100H414.959V90H417.879V95L422.159 90ZM429.241 96.2C429.588 97.1333 430.388 97.6 431.641 97.6C432.454 97.6 433.094 97.3467 433.561 96.84L435.961 98.22C434.974 99.5933 433.521 100.28 431.601 100.28C429.921 100.28 428.574 99.78 427.561 98.78C426.561 97.78 426.061 96.52 426.061 95C426.061 93.4933 426.554 92.24 427.541 91.24C428.541 90.2267 429.821 89.72 431.381 89.72C432.834 89.72 434.041 90.2267 435.001 91.24C435.974 92.24 436.461 93.4933 436.461 95C436.461 95.4267 436.421 95.8267 436.341 96.2H429.241ZM429.181 93.96H433.481C433.188 92.9067 432.481 92.38 431.361 92.38C430.201 92.38 429.474 92.9067 429.181 93.96Z" fill="#3E3E3E"/>
<path d="M38.2462 13.8H44.6862V46H37.3262V21.574L31.6222 23.138L29.8282 16.836L38.2462 13.8ZM56.7989 13.8H63.2389V46H55.8789V21.574L50.1749 23.138L48.3809 16.836L56.7989 13.8ZM75.9956 29.716C75.137 30.5747 74.1096 31.004 72.9136 31.004C71.7176 31.004 70.6903 30.5747 69.8316 29.716C68.973 28.8573 68.5436 27.83 68.5436 26.634C68.5436 25.438 68.973 24.4107 69.8316 23.552C70.6903 22.6933 71.7176 22.264 72.9136 22.264C74.1096 22.264 75.137 22.6933 75.9956 23.552C76.8543 24.4107 77.2836 25.438 77.2836 26.634C77.2836 27.83 76.8543 28.8573 75.9956 29.716ZM75.9956 45.356C75.137 46.2147 74.1096 46.644 72.9136 46.644C71.7176 46.644 70.6903 46.2147 69.8316 45.356C68.973 44.4973 68.5436 43.47 68.5436 42.274C68.5436 41.078 68.973 40.0507 69.8316 39.192C70.6903 38.3333 71.7176 37.904 72.9136 37.904C74.1096 37.904 75.137 38.3333 75.9956 39.192C76.8543 40.0507 77.2836 41.078 77.2836 42.274C77.2836 43.47 76.8543 44.4973 75.9956 45.356ZM96.4322 26.864C98.4869 27.5693 100.143 28.7193 101.4 30.314C102.658 31.878 103.286 33.7333 103.286 35.88C103.286 39.2533 102.152 41.8907 99.8822 43.792C97.6129 45.6933 94.8375 46.644 91.5562 46.644C89.0109 46.644 86.7262 46.0613 84.7022 44.896C82.7089 43.7307 81.2369 42.0133 80.2862 39.744L86.6342 36.064C87.4315 38.3333 89.0722 39.468 91.5562 39.468C92.9975 39.468 94.0862 39.1307 94.8222 38.456C95.5582 37.7813 95.9262 36.9227 95.9262 35.88C95.9262 34.8373 95.5582 33.9787 94.8222 33.304C94.0862 32.6293 92.9975 32.292 91.5562 32.292H90.0382L87.2322 28.106L93.0742 20.7H81.2982V13.8H101.998V19.78L96.4322 26.864ZM128.761 42.09C126.461 45.126 123.257 46.644 119.147 46.644C115.038 46.644 111.818 45.126 109.487 42.09C107.187 39.0233 106.037 34.96 106.037 29.9C106.037 24.84 107.187 20.792 109.487 17.756C111.818 14.6893 115.038 13.156 119.147 13.156C123.257 13.156 126.461 14.6893 128.761 17.756C131.092 20.792 132.257 24.84 132.257 29.9C132.257 34.96 131.092 39.0233 128.761 42.09ZM113.397 29.9C113.397 36.2787 115.314 39.468 119.147 39.468C122.981 39.468 124.897 36.2787 124.897 29.9C124.897 23.5213 122.981 20.332 119.147 20.332C115.314 20.332 113.397 23.5213 113.397 29.9Z" fill="#222222"/>
<line x1="145" y1="33.5" x2="476" y2="33.5" stroke="#FBD5CD" stroke-width="5"/>
<line x1="145" y1="113.5" x2="476" y2="113.5" stroke="#FBD5CD" stroke-width="5"/>
</svg>
