<svg width="348" height="156" viewBox="0 0 348 156" fill="none" xmlns="http://www.w3.org/2000/svg">
<path d="M22.3699 116.8H27.4099V142H21.6499V122.884L17.1859 124.108L15.7819 119.176L22.3699 116.8ZM30.7334 142V137.824L39.1934 129.04C40.8974 127.288 41.7494 125.8 41.7494 124.576C41.7494 123.784 41.5094 123.148 41.0294 122.668C40.5494 122.164 39.8894 121.912 39.0494 121.912C37.3694 121.912 36.1334 122.824 35.3414 124.648L30.4814 121.804C31.2494 120.004 32.4014 118.636 33.9374 117.7C35.4734 116.764 37.1534 116.296 38.9774 116.296C41.3294 116.296 43.3334 117.028 44.9894 118.492C46.6694 119.932 47.5094 121.876 47.5094 124.324C47.5094 126.988 46.2014 129.628 43.5854 132.244L39.4094 136.456H47.8694V142H30.7334ZM56.5887 129.256C55.9167 129.928 55.1127 130.264 54.1767 130.264C53.2407 130.264 52.4367 129.928 51.7647 129.256C51.0927 128.584 50.7567 127.78 50.7567 126.844C50.7567 125.908 51.0927 125.104 51.7647 124.432C52.4367 123.76 53.2407 123.424 54.1767 123.424C55.1127 123.424 55.9167 123.76 56.5887 124.432C57.2607 125.104 57.5967 125.908 57.5967 126.844C57.5967 127.78 57.2607 128.584 56.5887 129.256ZM56.5887 141.496C55.9167 142.168 55.1127 142.504 54.1767 142.504C53.2407 142.504 52.4367 142.168 51.7647 141.496C51.0927 140.824 50.7567 140.02 50.7567 139.084C50.7567 138.148 51.0927 137.344 51.7647 136.672C52.4367 136 53.2407 135.664 54.1767 135.664C55.1127 135.664 55.9167 136 56.5887 136.672C57.2607 137.344 57.5967 138.148 57.5967 139.084C57.5967 140.02 57.2607 140.824 56.5887 141.496ZM78.0906 138.94C76.2906 141.316 73.7826 142.504 70.5666 142.504C67.3506 142.504 64.8306 141.316 63.0066 138.94C61.2066 136.54 60.3066 133.36 60.3066 129.4C60.3066 125.44 61.2066 122.272 63.0066 119.896C64.8306 117.496 67.3506 116.296 70.5666 116.296C73.7826 116.296 76.2906 117.496 78.0906 119.896C79.9146 122.272 80.8266 125.44 80.8266 129.4C80.8266 133.36 79.9146 136.54 78.0906 138.94ZM66.0666 129.4C66.0666 134.392 67.5666 136.888 70.5666 136.888C73.5666 136.888 75.0666 134.392 75.0666 129.4C75.0666 124.408 73.5666 121.912 70.5666 121.912C67.5666 121.912 66.0666 124.408 66.0666 129.4ZM100.766 138.94C98.9663 141.316 96.4583 142.504 93.2423 142.504C90.0263 142.504 87.5063 141.316 85.6823 138.94C83.8823 136.54 82.9823 133.36 82.9823 129.4C82.9823 125.44 83.8823 122.272 85.6823 119.896C87.5063 117.496 90.0263 116.296 93.2423 116.296C96.4583 116.296 98.9663 117.496 100.766 119.896C102.59 122.272 103.502 125.44 103.502 129.4C103.502 133.36 102.59 136.54 100.766 138.94ZM88.7423 129.4C88.7423 134.392 90.2423 136.888 93.2423 136.888C96.2423 136.888 97.7423 134.392 97.7423 129.4C97.7423 124.408 96.2423 121.912 93.2423 121.912C90.2423 121.912 88.7423 124.408 88.7423 129.4Z" fill="#222222"/>
<path d="M252.423 116.8H257.463V142H251.703V122.884L247.239 124.108L245.835 119.176L252.423 116.8ZM270.254 125.656C272.726 125.656 274.778 126.4 276.41 127.888C278.066 129.352 278.894 131.416 278.894 134.08C278.894 136.72 278.006 138.784 276.23 140.272C274.454 141.76 272.282 142.504 269.714 142.504C267.626 142.504 265.79 142.06 264.206 141.172C262.622 140.26 261.458 138.904 260.714 137.104L265.682 134.224C266.306 136 267.65 136.888 269.714 136.888C270.842 136.888 271.694 136.624 272.27 136.096C272.846 135.568 273.134 134.896 273.134 134.08C273.134 133.264 272.858 132.592 272.306 132.064C271.754 131.536 270.95 131.272 269.894 131.272H262.01L263.054 116.8H277.634V122.2H268.454L268.202 125.656H270.254ZM286.536 129.256C285.864 129.928 285.06 130.264 284.124 130.264C283.188 130.264 282.384 129.928 281.712 129.256C281.04 128.584 280.704 127.78 280.704 126.844C280.704 125.908 281.04 125.104 281.712 124.432C282.384 123.76 283.188 123.424 284.124 123.424C285.06 123.424 285.864 123.76 286.536 124.432C287.208 125.104 287.544 125.908 287.544 126.844C287.544 127.78 287.208 128.584 286.536 129.256ZM286.536 141.496C285.864 142.168 285.06 142.504 284.124 142.504C283.188 142.504 282.384 142.168 281.712 141.496C281.04 140.824 280.704 140.02 280.704 139.084C280.704 138.148 281.04 137.344 281.712 136.672C282.384 136 283.188 135.664 284.124 135.664C285.06 135.664 285.864 136 286.536 136.672C287.208 137.344 287.544 138.148 287.544 139.084C287.544 140.02 287.208 140.824 286.536 141.496ZM308.038 138.94C306.238 141.316 303.73 142.504 300.514 142.504C297.298 142.504 294.778 141.316 292.954 138.94C291.154 136.54 290.254 133.36 290.254 129.4C290.254 125.44 291.154 122.272 292.954 119.896C294.778 117.496 297.298 116.296 300.514 116.296C303.73 116.296 306.238 117.496 308.038 119.896C309.862 122.272 310.774 125.44 310.774 129.4C310.774 133.36 309.862 136.54 308.038 138.94ZM296.014 129.4C296.014 134.392 297.514 136.888 300.514 136.888C303.514 136.888 305.014 134.392 305.014 129.4C305.014 124.408 303.514 121.912 300.514 121.912C297.514 121.912 296.014 124.408 296.014 129.4ZM330.714 138.94C328.914 141.316 326.406 142.504 323.19 142.504C319.974 142.504 317.454 141.316 315.63 138.94C313.83 136.54 312.93 133.36 312.93 129.4C312.93 125.44 313.83 122.272 315.63 119.896C317.454 117.496 319.974 116.296 323.19 116.296C326.406 116.296 328.914 117.496 330.714 119.896C332.538 122.272 333.45 125.44 333.45 129.4C333.45 133.36 332.538 136.54 330.714 138.94ZM318.69 129.4C318.69 134.392 320.19 136.888 323.19 136.888C326.19 136.888 327.69 134.392 327.69 129.4C327.69 124.408 326.19 121.912 323.19 121.912C320.19 121.912 318.69 124.408 318.69 129.4Z" fill="#222222"/>
<path d="M120.211 19.28C118.691 19.28 117.424 18.7733 116.411 17.76C115.411 16.7467 114.911 15.4933 114.911 14C114.911 12.5067 115.411 11.2533 116.411 10.24C117.424 9.22667 118.691 8.72 120.211 8.72C121.171 8.72 122.051 8.95333 122.851 9.42C123.664 9.88667 124.291 10.5067 124.731 11.28L122.111 12.8C121.751 12.0533 121.104 11.68 120.171 11.68C119.517 11.68 118.977 11.9 118.551 12.34C118.124 12.7667 117.911 13.32 117.911 14C117.911 14.68 118.124 15.24 118.551 15.68C118.977 16.1067 119.517 16.32 120.171 16.32C121.117 16.32 121.764 15.9467 122.111 15.2L124.731 16.7C124.291 17.4867 123.671 18.1133 122.871 18.58C122.071 19.0467 121.184 19.28 120.211 19.28ZM130.583 19.28C128.956 19.28 127.656 18.7667 126.683 17.74C125.723 16.7133 125.243 15.4133 125.243 13.84C125.243 12.1333 125.496 10.8133 126.003 9.88C126.509 8.94667 127.529 8.1 129.063 7.34C129.236 7.26 129.509 7.12667 129.883 6.94C130.269 6.75333 130.516 6.63333 130.623 6.58C130.743 6.51333 130.929 6.41333 131.183 6.28C131.436 6.13333 131.603 6.02 131.683 5.94C131.776 5.84667 131.896 5.72667 132.043 5.58C132.203 5.43333 132.323 5.28667 132.403 5.14C132.496 4.98 132.583 4.8 132.663 4.6L135.143 6.02C134.956 6.80667 134.569 7.43333 133.983 7.9C133.409 8.35333 132.543 8.8 131.383 9.24C130.556 9.54667 129.956 9.85333 129.583 10.16C129.223 10.4533 128.963 10.7933 128.803 11.18C129.509 10.5533 130.423 10.24 131.543 10.24C132.569 10.24 133.516 10.64 134.383 11.44C135.249 12.2267 135.683 13.28 135.683 14.6C135.683 15.9733 135.216 17.1 134.283 17.98C133.363 18.8467 132.129 19.28 130.583 19.28ZM129.003 16C129.429 16.3867 129.949 16.58 130.563 16.58C131.176 16.58 131.683 16.3933 132.083 16.02C132.483 15.6467 132.683 15.1733 132.683 14.6C132.683 14.0133 132.476 13.5333 132.063 13.16C131.649 12.7733 131.129 12.58 130.503 12.58C129.943 12.58 129.449 12.76 129.023 13.12C128.596 13.4667 128.383 13.9333 128.383 14.52C128.383 15.12 128.589 15.6133 129.003 16ZM145.65 17.76C144.624 18.7733 143.37 19.28 141.89 19.28C140.41 19.28 139.157 18.7733 138.13 17.76C137.104 16.7333 136.59 15.48 136.59 14C136.59 12.52 137.104 11.2733 138.13 10.26C139.157 9.23333 140.41 8.72 141.89 8.72C143.37 8.72 144.624 9.23333 145.65 10.26C146.677 11.2733 147.19 12.52 147.19 14C147.19 15.48 146.677 16.7333 145.65 17.76ZM140.25 15.7C140.69 16.14 141.237 16.36 141.89 16.36C142.544 16.36 143.09 16.14 143.53 15.7C143.97 15.26 144.19 14.6933 144.19 14C144.19 13.3067 143.97 12.74 143.53 12.3C143.09 11.86 142.544 11.64 141.89 11.64C141.237 11.64 140.69 11.86 140.25 12.3C139.81 12.74 139.59 13.3067 139.59 14C139.59 14.6933 139.81 15.26 140.25 15.7ZM154.867 8.72C156.187 8.72 157.314 9.23333 158.247 10.26C159.18 11.2733 159.647 12.52 159.647 14C159.647 15.48 159.18 16.7333 158.247 17.76C157.314 18.7733 156.187 19.28 154.867 19.28C153.587 19.28 152.594 18.8733 151.887 18.06V23H148.887V9H151.887V9.94C152.594 9.12667 153.587 8.72 154.867 8.72ZM152.547 15.78C153 16.22 153.574 16.44 154.267 16.44C154.96 16.44 155.527 16.22 155.967 15.78C156.42 15.34 156.647 14.7467 156.647 14C156.647 13.2533 156.42 12.66 155.967 12.22C155.527 11.78 154.96 11.56 154.267 11.56C153.574 11.56 153 11.78 152.547 12.22C152.107 12.66 151.887 13.2533 151.887 14C151.887 14.7467 152.107 15.34 152.547 15.78ZM173.348 9V11.88H169.348V19H166.348V9H173.348ZM182.818 17.76C181.792 18.7733 180.538 19.28 179.058 19.28C177.578 19.28 176.325 18.7733 175.298 17.76C174.272 16.7333 173.758 15.48 173.758 14C173.758 12.52 174.272 11.2733 175.298 10.26C176.325 9.23333 177.578 8.72 179.058 8.72C180.538 8.72 181.792 9.23333 182.818 10.26C183.845 11.2733 184.358 12.52 184.358 14C184.358 15.48 183.845 16.7333 182.818 17.76ZM177.418 15.7C177.858 16.14 178.405 16.36 179.058 16.36C179.712 16.36 180.258 16.14 180.698 15.7C181.138 15.26 181.358 14.6933 181.358 14C181.358 13.3067 181.138 12.74 180.698 12.3C180.258 11.86 179.712 11.64 179.058 11.64C178.405 11.64 177.858 11.86 177.418 12.3C176.978 12.74 176.758 13.3067 176.758 14C176.758 14.6933 176.978 15.26 177.418 15.7ZM190.855 19.28C189.335 19.28 188.068 18.7733 187.055 17.76C186.055 16.7467 185.555 15.4933 185.555 14C185.555 12.5067 186.055 11.2533 187.055 10.24C188.068 9.22667 189.335 8.72 190.855 8.72C191.815 8.72 192.695 8.95333 193.495 9.42C194.308 9.88667 194.935 10.5067 195.375 11.28L192.755 12.8C192.395 12.0533 191.748 11.68 190.815 11.68C190.162 11.68 189.622 11.9 189.195 12.34C188.768 12.7667 188.555 13.32 188.555 14C188.555 14.68 188.768 15.24 189.195 15.68C189.622 16.1067 190.162 16.32 190.815 16.32C191.762 16.32 192.408 15.9467 192.755 15.2L195.375 16.7C194.935 17.4867 194.315 18.1133 193.515 18.58C192.715 19.0467 191.828 19.28 190.855 19.28ZM204.682 9V11.88H201.702V19H198.702V11.88H195.682V9H204.682ZM208.266 15.2C208.613 16.1333 209.413 16.6 210.666 16.6C211.48 16.6 212.12 16.3467 212.586 15.84L214.986 17.22C214 18.5933 212.546 19.28 210.626 19.28C208.946 19.28 207.6 18.78 206.586 17.78C205.586 16.78 205.086 15.52 205.086 14C205.086 12.4933 205.58 11.24 206.566 10.24C207.566 9.22667 208.846 8.72 210.406 8.72C211.86 8.72 213.066 9.22667 214.026 10.24C215 11.24 215.486 12.4933 215.486 14C215.486 14.4267 215.446 14.8267 215.366 15.2H208.266ZM208.206 12.96H212.506C212.213 11.9067 211.506 11.38 210.386 11.38C209.226 11.38 208.5 11.9067 208.206 12.96ZM218.888 7.82V5.22H224.888V7.82H218.888ZM224.388 9H226.588V19H223.668V14L219.388 19H217.188V9H220.108V14L224.388 9Z" fill="#3E3E3E"/>
<path d="M251.87 14.8H256.91V40H251.15V20.884L246.686 22.108L245.282 17.176L251.87 14.8ZM260.233 40V35.824L268.693 27.04C270.397 25.288 271.249 23.8 271.249 22.576C271.249 21.784 271.009 21.148 270.529 20.668C270.049 20.164 269.389 19.912 268.549 19.912C266.869 19.912 265.633 20.824 264.841 22.648L259.981 19.804C260.749 18.004 261.901 16.636 263.437 15.7C264.973 14.764 266.653 14.296 268.477 14.296C270.829 14.296 272.833 15.028 274.489 16.492C276.169 17.932 277.009 19.876 277.009 22.324C277.009 24.988 275.701 27.628 273.085 30.244L268.909 34.456H277.369V40H260.233ZM286.089 27.256C285.417 27.928 284.613 28.264 283.677 28.264C282.741 28.264 281.937 27.928 281.265 27.256C280.593 26.584 280.257 25.78 280.257 24.844C280.257 23.908 280.593 23.104 281.265 22.432C281.937 21.76 282.741 21.424 283.677 21.424C284.613 21.424 285.417 21.76 286.089 22.432C286.761 23.104 287.097 23.908 287.097 24.844C287.097 25.78 286.761 26.584 286.089 27.256ZM286.089 39.496C285.417 40.168 284.613 40.504 283.677 40.504C282.741 40.504 281.937 40.168 281.265 39.496C280.593 38.824 280.257 38.02 280.257 37.084C280.257 36.148 280.593 35.344 281.265 34.672C281.937 34 282.741 33.664 283.677 33.664C284.613 33.664 285.417 34 286.089 34.672C286.761 35.344 287.097 36.148 287.097 37.084C287.097 38.02 286.761 38.824 286.089 39.496ZM307.591 36.94C305.791 39.316 303.283 40.504 300.067 40.504C296.851 40.504 294.331 39.316 292.507 36.94C290.707 34.54 289.807 31.36 289.807 27.4C289.807 23.44 290.707 20.272 292.507 17.896C294.331 15.496 296.851 14.296 300.067 14.296C303.283 14.296 305.791 15.496 307.591 17.896C309.415 20.272 310.327 23.44 310.327 27.4C310.327 31.36 309.415 34.54 307.591 36.94ZM295.567 27.4C295.567 32.392 297.067 34.888 300.067 34.888C303.067 34.888 304.567 32.392 304.567 27.4C304.567 22.408 303.067 19.912 300.067 19.912C297.067 19.912 295.567 22.408 295.567 27.4ZM330.266 36.94C328.466 39.316 325.958 40.504 322.742 40.504C319.526 40.504 317.006 39.316 315.182 36.94C313.382 34.54 312.482 31.36 312.482 27.4C312.482 23.44 313.382 20.272 315.182 17.896C317.006 15.496 319.526 14.296 322.742 14.296C325.958 14.296 328.466 15.496 330.266 17.896C332.09 20.272 333.002 23.44 333.002 27.4C333.002 31.36 332.09 34.54 330.266 36.94ZM318.242 27.4C318.242 32.392 319.742 34.888 322.742 34.888C325.742 34.888 327.242 32.392 327.242 27.4C327.242 22.408 325.742 19.912 322.742 19.912C319.742 19.912 318.242 22.408 318.242 27.4Z" fill="#222222"/>
<path d="M126.548 97.28C125.028 97.28 123.762 96.7733 122.748 95.76C121.748 94.7467 121.248 93.4933 121.248 92C121.248 90.5067 121.748 89.2533 122.748 88.24C123.762 87.2267 125.028 86.72 126.548 86.72C127.508 86.72 128.388 86.9533 129.188 87.42C130.002 87.8867 130.628 88.5067 131.068 89.28L128.448 90.8C128.088 90.0533 127.442 89.68 126.508 89.68C125.855 89.68 125.315 89.9 124.888 90.34C124.462 90.7667 124.248 91.32 124.248 92C124.248 92.68 124.462 93.24 124.888 93.68C125.315 94.1067 125.855 94.32 126.508 94.32C127.455 94.32 128.102 93.9467 128.448 93.2L131.068 94.7C130.628 95.4867 130.008 96.1133 129.208 96.58C128.408 97.0467 127.522 97.28 126.548 97.28ZM134.76 93.2C135.107 94.1333 135.907 94.6 137.16 94.6C137.974 94.6 138.614 94.3467 139.08 93.84L141.48 95.22C140.494 96.5933 139.04 97.28 137.12 97.28C135.44 97.28 134.094 96.78 133.08 95.78C132.08 94.78 131.58 93.52 131.58 92C131.58 90.4933 132.074 89.24 133.06 88.24C134.06 87.2267 135.34 86.72 136.9 86.72C138.354 86.72 139.56 87.2267 140.52 88.24C141.494 89.24 141.98 90.4933 141.98 92C141.98 92.4267 141.94 92.8267 141.86 93.2H134.76ZM134.7 90.96H139C138.707 89.9067 138 89.38 136.88 89.38C135.72 89.38 134.994 89.9067 134.7 90.96ZM153.282 97H149.882L146.682 92.58V97H143.682V87H146.682V91.38L149.682 87H153.182L149.542 92L153.282 97ZM160.365 86.72C161.685 86.72 162.812 87.2333 163.745 88.26C164.678 89.2733 165.145 90.52 165.145 92C165.145 93.48 164.678 94.7333 163.745 95.76C162.812 96.7733 161.685 97.28 160.365 97.28C159.085 97.28 158.092 96.8733 157.385 96.06V101H154.385V87H157.385V87.94C158.092 87.1267 159.085 86.72 160.365 86.72ZM158.045 93.78C158.498 94.22 159.072 94.44 159.765 94.44C160.458 94.44 161.025 94.22 161.465 93.78C161.918 93.34 162.145 92.7467 162.145 92C162.145 91.2533 161.918 90.66 161.465 90.22C161.025 89.78 160.458 89.56 159.765 89.56C159.072 89.56 158.498 89.78 158.045 90.22C157.605 90.66 157.385 91.2533 157.385 92C157.385 92.7467 157.605 93.34 158.045 93.78ZM169.526 93.2C169.873 94.1333 170.673 94.6 171.926 94.6C172.739 94.6 173.379 94.3467 173.846 93.84L176.246 95.22C175.259 96.5933 173.806 97.28 171.886 97.28C170.206 97.28 168.859 96.78 167.846 95.78C166.846 94.78 166.346 93.52 166.346 92C166.346 90.4933 166.839 89.24 167.826 88.24C168.826 87.2267 170.106 86.72 171.666 86.72C173.119 86.72 174.326 87.2267 175.286 88.24C176.259 89.24 176.746 90.4933 176.746 92C176.746 92.4267 176.706 92.8267 176.626 93.2H169.526ZM169.466 90.96H173.766C173.473 89.9067 172.766 89.38 171.646 89.38C170.486 89.38 169.759 89.9067 169.466 90.96ZM186.157 87V89.88H183.177V97H180.177V89.88H177.157V87H186.157ZM193.852 87H196.852V97H193.852V93.4H190.452V97H187.452V87H190.452V90.6H193.852V87ZM207.613 95.76C206.586 96.7733 205.333 97.28 203.853 97.28C202.373 97.28 201.12 96.7733 200.093 95.76C199.066 94.7333 198.553 93.48 198.553 92C198.553 90.52 199.066 89.2733 200.093 88.26C201.12 87.2333 202.373 86.72 203.853 86.72C205.333 86.72 206.586 87.2333 207.613 88.26C208.64 89.2733 209.153 90.52 209.153 92C209.153 93.48 208.64 94.7333 207.613 95.76ZM202.213 93.7C202.653 94.14 203.2 94.36 203.853 94.36C204.506 94.36 205.053 94.14 205.493 93.7C205.933 93.26 206.153 92.6933 206.153 92C206.153 91.3067 205.933 90.74 205.493 90.3C205.053 89.86 204.506 89.64 203.853 89.64C203.2 89.64 202.653 89.86 202.213 90.3C201.773 90.74 201.553 91.3067 201.553 92C201.553 92.6933 201.773 93.26 202.213 93.7ZM213.53 93.2C213.877 94.1333 214.677 94.6 215.93 94.6C216.743 94.6 217.383 94.3467 217.85 93.84L220.25 95.22C219.263 96.5933 217.81 97.28 215.89 97.28C214.21 97.28 212.863 96.78 211.85 95.78C210.85 94.78 210.35 93.52 210.35 92C210.35 90.4933 210.843 89.24 211.83 88.24C212.83 87.2267 214.11 86.72 215.67 86.72C217.123 86.72 218.33 87.2267 219.29 88.24C220.263 89.24 220.75 90.4933 220.75 92C220.75 92.4267 220.71 92.8267 220.63 93.2H213.53ZM213.47 90.96H217.77C217.477 89.9067 216.77 89.38 215.65 89.38C214.49 89.38 213.763 89.9067 213.47 90.96ZM118.989 107V117H116.109V111.84L113.869 115.32H113.509L111.269 111.84V117H108.389V107H111.269L113.689 110.78L116.109 107H118.989ZM123.862 113.2C124.209 114.133 125.009 114.6 126.262 114.6C127.075 114.6 127.715 114.347 128.182 113.84L130.582 115.22C129.595 116.593 128.142 117.28 126.222 117.28C124.542 117.28 123.195 116.78 122.182 115.78C121.182 114.78 120.682 113.52 120.682 112C120.682 110.493 121.175 109.24 122.162 108.24C123.162 107.227 124.442 106.72 126.002 106.72C127.455 106.72 128.662 107.227 129.622 108.24C130.595 109.24 131.082 110.493 131.082 112C131.082 112.427 131.042 112.827 130.962 113.2H123.862ZM123.802 110.96H128.102C127.809 109.907 127.102 109.38 125.982 109.38C124.822 109.38 124.095 109.907 123.802 110.96ZM138.764 106.72C140.084 106.72 141.21 107.233 142.144 108.26C143.077 109.273 143.544 110.52 143.544 112C143.544 113.48 143.077 114.733 142.144 115.76C141.21 116.773 140.084 117.28 138.764 117.28C137.484 117.28 136.49 116.873 135.784 116.06V121H132.784V107H135.784V107.94C136.49 107.127 137.484 106.72 138.764 106.72ZM136.444 113.78C136.897 114.22 137.47 114.44 138.164 114.44C138.857 114.44 139.424 114.22 139.864 113.78C140.317 113.34 140.544 112.747 140.544 112C140.544 111.253 140.317 110.66 139.864 110.22C139.424 109.78 138.857 109.56 138.164 109.56C137.47 109.56 136.897 109.78 136.444 110.22C136.004 110.66 135.784 111.253 135.784 112C135.784 112.747 136.004 113.34 136.444 113.78ZM153.805 115.76C152.778 116.773 151.525 117.28 150.045 117.28C148.565 117.28 147.311 116.773 146.285 115.76C145.258 114.733 144.745 113.48 144.745 112C144.745 110.52 145.258 109.273 146.285 108.26C147.311 107.233 148.565 106.72 150.045 106.72C151.525 106.72 152.778 107.233 153.805 108.26C154.831 109.273 155.345 110.52 155.345 112C155.345 113.48 154.831 114.733 153.805 115.76ZM148.405 113.7C148.845 114.14 149.391 114.36 150.045 114.36C150.698 114.36 151.245 114.14 151.685 113.7C152.125 113.26 152.345 112.693 152.345 112C152.345 111.307 152.125 110.74 151.685 110.3C151.245 109.86 150.698 109.64 150.045 109.64C149.391 109.64 148.845 109.86 148.405 110.3C147.965 110.74 147.745 111.307 147.745 112C147.745 112.693 147.965 113.26 148.405 113.7ZM166.441 107V117H163.441V109.8H160.041V117H157.041V107H166.441ZM174.623 106.72C175.943 106.72 177.07 107.233 178.003 108.26C178.936 109.273 179.403 110.52 179.403 112C179.403 113.48 178.936 114.733 178.003 115.76C177.07 116.773 175.943 117.28 174.623 117.28C173.343 117.28 172.35 116.873 171.643 116.06V121H168.643V107H171.643V107.94C172.35 107.127 173.343 106.72 174.623 106.72ZM172.303 113.78C172.756 114.22 173.33 114.44 174.023 114.44C174.716 114.44 175.283 114.22 175.723 113.78C176.176 113.34 176.403 112.747 176.403 112C176.403 111.253 176.176 110.66 175.723 110.22C175.283 109.78 174.716 109.56 174.023 109.56C173.33 109.56 172.756 109.78 172.303 110.22C171.863 110.66 171.643 111.253 171.643 112C171.643 112.747 171.863 113.34 172.303 113.78ZM188.304 107H190.504V117H187.584V112L183.304 117H181.104V107H184.024V112L188.304 107ZM201.005 107V117H198.085V114.12H197.465L195.405 117H192.005L194.345 113.7C193.745 113.393 193.272 112.953 192.925 112.38C192.579 111.807 192.405 111.2 192.405 110.56C192.405 109.613 192.739 108.787 193.405 108.08C194.072 107.36 194.979 107 196.125 107H201.005ZM196.385 109.64C196.065 109.64 195.805 109.733 195.605 109.92C195.419 110.093 195.325 110.34 195.325 110.66C195.325 110.967 195.419 111.207 195.605 111.38C195.805 111.553 196.065 111.64 196.385 111.64H198.085V109.64H196.385ZM211.313 107V109.88H208.333V117H205.333V109.88H202.313V107H211.313ZM219.808 107H222.008V117H219.088V112L214.808 117H212.608V107H215.528V112L219.808 107ZM226.889 113.2C227.236 114.133 228.036 114.6 229.289 114.6C230.103 114.6 230.743 114.347 231.209 113.84L233.609 115.22C232.623 116.593 231.169 117.28 229.249 117.28C227.569 117.28 226.223 116.78 225.209 115.78C224.209 114.78 223.709 113.52 223.709 112C223.709 110.493 224.203 109.24 225.189 108.24C226.189 107.227 227.469 106.72 229.029 106.72C230.483 106.72 231.689 107.227 232.649 108.24C233.623 109.24 234.109 110.493 234.109 112C234.109 112.427 234.069 112.827 233.989 113.2H226.889ZM226.829 110.96H231.129C230.836 109.907 230.129 109.38 229.009 109.38C227.849 109.38 227.123 109.907 226.829 110.96Z" fill="#3E3E3E"/>
<path d="M26.1492 13.8H31.1892V39H25.4292V19.884L20.9652 21.108L19.5612 16.176L26.1492 13.8ZM40.6687 13.8H45.7087V39H39.9487V19.884L35.4847 21.108L34.0807 16.176L40.6687 13.8ZM55.6922 26.256C55.0202 26.928 54.2162 27.264 53.2802 27.264C52.3442 27.264 51.5402 26.928 50.8682 26.256C50.1962 25.584 49.8602 24.78 49.8602 23.844C49.8602 22.908 50.1962 22.104 50.8682 21.432C51.5402 20.76 52.3442 20.424 53.2802 20.424C54.2162 20.424 55.0202 20.76 55.6922 21.432C56.3642 22.104 56.7002 22.908 56.7002 23.844C56.7002 24.78 56.3642 25.584 55.6922 26.256ZM55.6922 38.496C55.0202 39.168 54.2162 39.504 53.2802 39.504C52.3442 39.504 51.5402 39.168 50.8682 38.496C50.1962 37.824 49.8602 37.02 49.8602 36.084C49.8602 35.148 50.1962 34.344 50.8682 33.672C51.5402 33 52.3442 32.664 53.2802 32.664C54.2162 32.664 55.0202 33 55.6922 33.672C56.3642 34.344 56.7002 35.148 56.7002 36.084C56.7002 37.02 56.3642 37.824 55.6922 38.496ZM71.6861 24.024C73.2941 24.576 74.5901 25.476 75.5741 26.724C76.5581 27.948 77.0501 29.4 77.0501 31.08C77.0501 33.72 76.1621 35.784 74.3861 37.272C72.6101 38.76 70.4381 39.504 67.8701 39.504C65.8781 39.504 64.0901 39.048 62.5061 38.136C60.9461 37.224 59.7941 35.88 59.0501 34.104L64.0181 31.224C64.6421 33 65.9261 33.888 67.8701 33.888C68.9981 33.888 69.8501 33.624 70.4261 33.096C71.0021 32.568 71.2901 31.896 71.2901 31.08C71.2901 30.264 71.0021 29.592 70.4261 29.064C69.8501 28.536 68.9981 28.272 67.8701 28.272H66.6821L64.4861 24.996L69.0581 19.2H59.8421V13.8H76.0421V18.48L71.6861 24.024ZM96.987 35.94C95.187 38.316 92.679 39.504 89.463 39.504C86.247 39.504 83.727 38.316 81.903 35.94C80.103 33.54 79.203 30.36 79.203 26.4C79.203 22.44 80.103 19.272 81.903 16.896C83.727 14.496 86.247 13.296 89.463 13.296C92.679 13.296 95.187 14.496 96.987 16.896C98.811 19.272 99.723 22.44 99.723 26.4C99.723 30.36 98.811 33.54 96.987 35.94ZM84.963 26.4C84.963 31.392 86.463 33.888 89.463 33.888C92.463 33.888 93.963 31.392 93.963 26.4C93.963 21.408 92.463 18.912 89.463 18.912C86.463 18.912 84.963 21.408 84.963 26.4Z" fill="#222222"/>
<line x1="120" y1="25.5" x2="232" y2="25.5" stroke="#FBD5CD" stroke-width="3"/>
<line x1="120" y1="126.5" x2="232" y2="126.5" stroke="#FBD5CD" stroke-width="3"/>
</svg>
