<svg width="274" height="143" viewBox="0 0 274 143" fill="none" xmlns="http://www.w3.org/2000/svg">
<path d="M15.1279 99.32L18.7879 98H21.5879V112H18.3879V101.38L15.9079 102.06L15.1279 99.32ZM32.9543 112H23.4343V109.68L28.1343 104.8C29.081 103.813 29.5543 102.987 29.5543 102.32C29.5543 101.88 29.421 101.527 29.1543 101.26C28.8876 100.98 28.521 100.84 28.0543 100.84C27.121 100.84 26.4343 101.347 25.9943 102.36L23.2943 100.78C23.721 99.8067 24.3543 99.0533 25.1943 98.52C26.0343 97.9867 26.9743 97.72 28.0143 97.72C29.3343 97.72 30.4476 98.1267 31.3543 98.94C32.2876 99.74 32.7543 100.82 32.7543 102.18C32.7543 103.66 32.0276 105.127 30.5743 106.58L28.2543 108.92H32.9543V112ZM38.3584 103.58C38.3584 104.1 38.1717 104.547 37.7984 104.92C37.425 105.293 36.9784 105.48 36.4584 105.48C35.9384 105.48 35.4917 105.293 35.1184 104.92C34.745 104.547 34.5584 104.1 34.5584 103.58C34.5584 103.06 34.745 102.613 35.1184 102.24C35.4917 101.867 35.9384 101.68 36.4584 101.68C36.9784 101.68 37.425 101.867 37.7984 102.24C38.1717 102.613 38.3584 103.06 38.3584 103.58ZM38.3584 110.38C38.3584 110.9 38.1717 111.347 37.7984 111.72C37.425 112.093 36.9784 112.28 36.4584 112.28C35.9384 112.28 35.4917 112.093 35.1184 111.72C34.745 111.347 34.5584 110.9 34.5584 110.38C34.5584 109.86 34.745 109.413 35.1184 109.04C35.4917 108.667 35.9384 108.48 36.4584 108.48C36.9784 108.48 37.425 108.667 37.7984 109.04C38.1717 109.413 38.3584 109.86 38.3584 110.38ZM49.7438 110.3C48.7438 111.62 47.3505 112.28 45.5638 112.28C43.7905 112.28 42.3905 111.62 41.3638 110.3C40.3638 108.967 39.8638 107.2 39.8638 105C39.8638 102.8 40.3638 101.04 41.3638 99.72C42.3772 98.3867 43.7772 97.72 45.5638 97.72C47.3505 97.72 48.7438 98.3867 49.7438 99.72C50.7572 101.027 51.2638 102.787 51.2638 105C51.2638 107.2 50.7572 108.967 49.7438 110.3ZM45.5638 100.84C43.8972 100.84 43.0638 102.227 43.0638 105C43.0638 107.773 43.8972 109.16 45.5638 109.16C47.2305 109.16 48.0638 107.773 48.0638 105C48.0638 102.227 47.2305 100.84 45.5638 100.84ZM62.3415 110.3C61.3415 111.62 59.9482 112.28 58.1615 112.28C56.3882 112.28 54.9882 111.62 53.9615 110.3C52.9615 108.967 52.4615 107.2 52.4615 105C52.4615 102.8 52.9615 101.04 53.9615 99.72C54.9748 98.3867 56.3748 97.72 58.1615 97.72C59.9482 97.72 61.3415 98.3867 62.3415 99.72C63.3548 101.027 63.8615 102.787 63.8615 105C63.8615 107.2 63.3548 108.967 62.3415 110.3ZM58.1615 100.84C56.4948 100.84 55.6615 102.227 55.6615 105C55.6615 107.773 56.4948 109.16 58.1615 109.16C59.8282 109.16 60.6615 107.773 60.6615 105C60.6615 102.227 59.8282 100.84 58.1615 100.84Z" fill="#222222"/>
<path d="M222.72 113H213.2V110.68L217.9 105.8C218.847 104.813 219.32 103.987 219.32 103.32C219.32 102.88 219.187 102.527 218.92 102.26C218.653 101.98 218.287 101.84 217.82 101.84C216.887 101.84 216.2 102.347 215.76 103.36L213.06 101.78C213.487 100.807 214.12 100.053 214.96 99.52C215.8 98.9867 216.74 98.72 217.78 98.72C219.1 98.72 220.213 99.1267 221.12 99.94C222.053 100.74 222.52 101.82 222.52 103.18C222.52 104.66 221.793 106.127 220.34 107.58L218.02 109.92H222.72V113ZM233.709 111.3C232.709 112.62 231.315 113.28 229.529 113.28C227.755 113.28 226.355 112.62 225.329 111.3C224.329 109.967 223.829 108.2 223.829 106C223.829 103.8 224.329 102.04 225.329 100.72C226.342 99.3867 227.742 98.72 229.529 98.72C231.315 98.72 232.709 99.3867 233.709 100.72C234.722 102.027 235.229 103.787 235.229 106C235.229 108.2 234.722 109.967 233.709 111.3ZM229.529 101.84C227.862 101.84 227.029 103.227 227.029 106C227.029 108.773 227.862 110.16 229.529 110.16C231.195 110.16 232.029 108.773 232.029 106C232.029 103.227 231.195 101.84 229.529 101.84ZM240.526 104.58C240.526 105.1 240.34 105.547 239.966 105.92C239.593 106.293 239.146 106.48 238.626 106.48C238.106 106.48 237.66 106.293 237.286 105.92C236.913 105.547 236.726 105.1 236.726 104.58C236.726 104.06 236.913 103.613 237.286 103.24C237.66 102.867 238.106 102.68 238.626 102.68C239.146 102.68 239.593 102.867 239.966 103.24C240.34 103.613 240.526 104.06 240.526 104.58ZM240.526 111.38C240.526 111.9 240.34 112.347 239.966 112.72C239.593 113.093 239.146 113.28 238.626 113.28C238.106 113.28 237.66 113.093 237.286 112.72C236.913 112.347 236.726 111.9 236.726 111.38C236.726 110.86 236.913 110.413 237.286 110.04C237.66 109.667 238.106 109.48 238.626 109.48C239.146 109.48 239.593 109.667 239.966 110.04C240.34 110.413 240.526 110.86 240.526 111.38ZM251.912 111.3C250.912 112.62 249.518 113.28 247.732 113.28C245.958 113.28 244.558 112.62 243.532 111.3C242.532 109.967 242.032 108.2 242.032 106C242.032 103.8 242.532 102.04 243.532 100.72C244.545 99.3867 245.945 98.72 247.732 98.72C249.518 98.72 250.912 99.3867 251.912 100.72C252.925 102.027 253.432 103.787 253.432 106C253.432 108.2 252.925 109.967 251.912 111.3ZM247.732 101.84C246.065 101.84 245.232 103.227 245.232 106C245.232 108.773 246.065 110.16 247.732 110.16C249.398 110.16 250.232 108.773 250.232 106C250.232 103.227 249.398 101.84 247.732 101.84ZM264.509 111.3C263.509 112.62 262.116 113.28 260.329 113.28C258.556 113.28 257.156 112.62 256.129 111.3C255.129 109.967 254.629 108.2 254.629 106C254.629 103.8 255.129 102.04 256.129 100.72C257.143 99.3867 258.543 98.72 260.329 98.72C262.116 98.72 263.509 99.3867 264.509 100.72C265.523 102.027 266.029 103.787 266.029 106C266.029 108.2 265.523 109.967 264.509 111.3ZM260.329 101.84C258.663 101.84 257.829 103.227 257.829 106C257.829 108.773 258.663 110.16 260.329 110.16C261.996 110.16 262.829 108.773 262.829 106C262.829 103.227 261.996 101.84 260.329 101.84Z" fill="#222222"/>
<path d="M95.3684 14.224C94.1524 14.224 93.1391 13.8187 92.3284 13.008C91.5284 12.1973 91.1284 11.1947 91.1284 10C91.1284 8.80533 91.5284 7.80267 92.3284 6.992C93.1391 6.18133 94.1524 5.776 95.3684 5.776C96.1258 5.776 96.8298 5.96267 97.4804 6.336C98.1311 6.70933 98.6324 7.20533 98.9844 7.824L96.8884 9.04C96.6004 8.44267 96.0831 8.144 95.3364 8.144C94.8138 8.144 94.3818 8.32 94.0404 8.672C93.6991 9.01333 93.5284 9.456 93.5284 10C93.5284 10.544 93.6991 10.992 94.0404 11.344C94.3818 11.6853 94.8138 11.856 95.3364 11.856C96.0938 11.856 96.6111 11.5573 96.8884 10.96L98.9844 12.16C98.6324 12.8 98.1311 13.3067 97.4804 13.68C96.8404 14.0427 96.1364 14.224 95.3684 14.224ZM103.666 14.224C102.375 14.224 101.335 13.8133 100.546 12.992C99.7781 12.1707 99.3941 11.1307 99.3941 9.872C99.3941 8.51733 99.5967 7.46133 100.002 6.704C100.397 5.95733 101.213 5.28 102.45 4.672L103.106 4.352C103.458 4.18133 103.655 4.08533 103.698 4.064L104.146 3.824C104.359 3.696 104.589 3.50933 104.834 3.264C105.026 3.08267 105.191 2.82133 105.33 2.48L107.314 3.616C107.165 4.24533 106.855 4.74667 106.386 5.12C105.927 5.48267 105.234 5.84 104.306 6.192C103.666 6.42667 103.197 6.66133 102.898 6.896C102.599 7.13067 102.381 7.41333 102.242 7.744C102.807 7.24267 103.538 6.992 104.434 6.992C105.255 6.992 106.013 7.312 106.706 7.952C107.399 8.58133 107.746 9.424 107.746 10.48C107.746 11.5787 107.373 12.48 106.626 13.184C105.879 13.8773 104.893 14.224 103.666 14.224ZM105.346 10.48C105.346 10.0107 105.181 9.62667 104.85 9.328C104.519 9.01867 104.103 8.864 103.602 8.864C103.133 8.864 102.733 9.008 102.402 9.296C102.071 9.584 101.906 9.95733 101.906 10.416C101.906 10.896 102.071 11.2907 102.402 11.6C102.743 11.9093 103.159 12.064 103.65 12.064C104.141 12.064 104.546 11.9147 104.866 11.616C105.186 11.3173 105.346 10.9387 105.346 10.48ZM115.72 13.008C114.91 13.8187 113.907 14.224 112.712 14.224C111.518 14.224 110.515 13.8187 109.704 13.008C108.883 12.1867 108.472 11.184 108.472 10C108.472 8.82667 108.883 7.82933 109.704 7.008C110.526 6.18667 111.528 5.776 112.712 5.776C113.896 5.776 114.899 6.18667 115.72 7.008C116.542 7.82933 116.952 8.82667 116.952 10C116.952 11.184 116.542 12.1867 115.72 13.008ZM110.872 10C110.872 10.5547 111.048 11.008 111.4 11.36C111.752 11.712 112.19 11.888 112.712 11.888C113.235 11.888 113.672 11.712 114.024 11.36C114.376 11.008 114.552 10.5547 114.552 10C114.552 9.44533 114.376 8.992 114.024 8.64C113.672 8.288 113.235 8.112 112.712 8.112C112.19 8.112 111.752 8.288 111.4 8.64C111.048 8.992 110.872 9.44533 110.872 10ZM123.094 5.776C124.139 5.776 125.04 6.18667 125.798 7.008C126.544 7.81867 126.918 8.816 126.918 10C126.918 11.1947 126.544 12.1973 125.798 13.008C125.051 13.8187 124.15 14.224 123.094 14.224C122.059 14.224 121.264 13.8987 120.71 13.248V17.2H118.31V6H120.71V6.752C121.264 6.10133 122.059 5.776 123.094 5.776ZM121.238 11.424C121.6 11.776 122.059 11.952 122.614 11.952C123.168 11.952 123.622 11.776 123.974 11.424C124.336 11.072 124.518 10.5973 124.518 10C124.518 9.40267 124.336 8.928 123.974 8.576C123.622 8.224 123.168 8.048 122.614 8.048C122.059 8.048 121.6 8.224 121.238 8.576C120.886 8.928 120.71 9.40267 120.71 10C120.71 10.5973 120.886 11.072 121.238 11.424ZM132.278 6H137.878V8.304H134.678V14H132.278V6ZM145.455 13.008C144.644 13.8187 143.641 14.224 142.447 14.224C141.252 14.224 140.249 13.8187 139.439 13.008C138.617 12.1867 138.207 11.184 138.207 10C138.207 8.82667 138.617 7.82933 139.439 7.008C140.26 6.18667 141.263 5.776 142.447 5.776C143.631 5.776 144.633 6.18667 145.455 7.008C146.276 7.82933 146.687 8.82667 146.687 10C146.687 11.184 146.276 12.1867 145.455 13.008ZM140.607 10C140.607 10.5547 140.783 11.008 141.135 11.36C141.487 11.712 141.924 11.888 142.447 11.888C142.969 11.888 143.407 11.712 143.759 11.36C144.111 11.008 144.287 10.5547 144.287 10C144.287 9.44533 144.111 8.992 143.759 8.64C143.407 8.288 142.969 8.112 142.447 8.112C141.924 8.112 141.487 8.288 141.135 8.64C140.783 8.992 140.607 9.44533 140.607 10ZM151.884 14.224C150.668 14.224 149.655 13.8187 148.844 13.008C148.044 12.1973 147.644 11.1947 147.644 10C147.644 8.80533 148.044 7.80267 148.844 6.992C149.655 6.18133 150.668 5.776 151.884 5.776C152.641 5.776 153.345 5.96267 153.996 6.336C154.647 6.70933 155.148 7.20533 155.5 7.824L153.404 9.04C153.116 8.44267 152.599 8.144 151.852 8.144C151.329 8.144 150.897 8.32 150.556 8.672C150.215 9.01333 150.044 9.456 150.044 10C150.044 10.544 150.215 10.992 150.556 11.344C150.897 11.6853 151.329 11.856 151.852 11.856C152.609 11.856 153.127 11.5573 153.404 10.96L155.5 12.16C155.148 12.8 154.647 13.3067 153.996 13.68C153.356 14.0427 152.652 14.224 151.884 14.224ZM155.746 6H162.946V8.304H160.562V14H158.162V8.304H155.746V6ZM171.493 10.96H165.813C166.08 11.7067 166.72 12.08 167.733 12.08C168.384 12.08 168.896 11.8773 169.269 11.472L171.189 12.576C170.41 13.6747 169.248 14.224 167.701 14.224C166.368 14.224 165.29 13.824 164.469 13.024C163.669 12.224 163.269 11.216 163.269 10C163.269 8.80533 163.664 7.80267 164.453 6.992C165.253 6.18133 166.277 5.776 167.525 5.776C168.688 5.776 169.653 6.18133 170.421 6.992C171.2 7.78133 171.589 8.784 171.589 10C171.589 10.3413 171.557 10.6613 171.493 10.96ZM165.765 9.168H169.205C168.97 8.32533 168.405 7.904 167.509 7.904C166.581 7.904 166 8.32533 165.765 9.168ZM179.11 5.056H174.31V2.976H179.11V5.056ZM175.286 10L178.71 6H180.47V14H178.134V10L174.71 14H172.95V6H175.286V10Z" fill="#3E3E3E"/>
<path d="M210.934 19.32L214.594 18H217.394V32H214.194V21.38L211.714 22.06L210.934 19.32ZM228.761 32H219.241V29.68L223.941 24.8C224.887 23.8133 225.361 22.9867 225.361 22.32C225.361 21.88 225.227 21.5267 224.961 21.26C224.694 20.98 224.327 20.84 223.861 20.84C222.927 20.84 222.241 21.3467 221.801 22.36L219.101 20.78C219.527 19.8067 220.161 19.0533 221.001 18.52C221.841 17.9867 222.781 17.72 223.821 17.72C225.141 17.72 226.254 18.1267 227.161 18.94C228.094 19.74 228.561 20.82 228.561 22.18C228.561 23.66 227.834 25.1267 226.381 26.58L224.061 28.92H228.761V32ZM234.165 23.58C234.165 24.1 233.978 24.5467 233.605 24.92C233.232 25.2933 232.785 25.48 232.265 25.48C231.745 25.48 231.298 25.2933 230.925 24.92C230.552 24.5467 230.365 24.1 230.365 23.58C230.365 23.06 230.552 22.6133 230.925 22.24C231.298 21.8667 231.745 21.68 232.265 21.68C232.785 21.68 233.232 21.8667 233.605 22.24C233.978 22.6133 234.165 23.06 234.165 23.58ZM234.165 30.38C234.165 30.9 233.978 31.3467 233.605 31.72C233.232 32.0933 232.785 32.28 232.265 32.28C231.745 32.28 231.298 32.0933 230.925 31.72C230.552 31.3467 230.365 30.9 230.365 30.38C230.365 29.86 230.552 29.4133 230.925 29.04C231.298 28.6667 231.745 28.48 232.265 28.48C232.785 28.48 233.232 28.6667 233.605 29.04C233.978 29.4133 234.165 29.86 234.165 30.38ZM245.55 30.3C244.55 31.62 243.157 32.28 241.37 32.28C239.597 32.28 238.197 31.62 237.17 30.3C236.17 28.9667 235.67 27.2 235.67 25C235.67 22.8 236.17 21.04 237.17 19.72C238.184 18.3867 239.584 17.72 241.37 17.72C243.157 17.72 244.55 18.3867 245.55 19.72C246.564 21.0267 247.07 22.7867 247.07 25C247.07 27.2 246.564 28.9667 245.55 30.3ZM241.37 20.84C239.704 20.84 238.87 22.2267 238.87 25C238.87 27.7733 239.704 29.16 241.37 29.16C243.037 29.16 243.87 27.7733 243.87 25C243.87 22.2267 243.037 20.84 241.37 20.84ZM258.148 30.3C257.148 31.62 255.755 32.28 253.968 32.28C252.195 32.28 250.795 31.62 249.768 30.3C248.768 28.9667 248.268 27.2 248.268 25C248.268 22.8 248.768 21.04 249.768 19.72C250.781 18.3867 252.181 17.72 253.968 17.72C255.755 17.72 257.148 18.3867 258.148 19.72C259.161 21.0267 259.668 22.7867 259.668 25C259.668 27.2 259.161 28.9667 258.148 30.3ZM253.968 20.84C252.301 20.84 251.468 22.2267 251.468 25C251.468 27.7733 252.301 29.16 253.968 29.16C255.635 29.16 256.468 27.7733 256.468 25C256.468 22.2267 255.635 20.84 253.968 20.84Z" fill="#222222"/>
<path d="M119.318 85V90.76H120.358V95.144H118.022V93H113.574V95.144H111.238V90.76H112.23C112.657 90.1093 112.87 89.1867 112.87 87.992V85H119.318ZM114.742 90.76H116.982V87.144H115.206V87.992C115.206 89.0907 115.051 90.0133 114.742 90.76ZM129.063 89.96H123.383C123.65 90.7067 124.29 91.08 125.303 91.08C125.954 91.08 126.466 90.8773 126.839 90.472L128.759 91.576C127.981 92.6747 126.818 93.224 125.271 93.224C123.938 93.224 122.861 92.824 122.039 92.024C121.239 91.224 120.839 90.216 120.839 89C120.839 87.8053 121.234 86.8027 122.023 85.992C122.823 85.1813 123.847 84.776 125.095 84.776C126.258 84.776 127.223 85.1813 127.991 85.992C128.77 86.7813 129.159 87.784 129.159 89C129.159 89.3413 129.127 89.6613 129.063 89.96ZM123.335 88.168H126.775C126.541 87.3253 125.975 86.904 125.079 86.904C124.151 86.904 123.57 87.3253 123.335 88.168ZM135.641 87.88V85H138.041V93H135.641V90.12H132.921V93H130.521V85H132.921V87.88H135.641ZM142.202 87.4H143.546C144.506 87.4 145.269 87.656 145.834 88.168C146.399 88.68 146.682 89.3573 146.682 90.2C146.682 91.0427 146.399 91.72 145.834 92.232C145.269 92.744 144.506 93 143.546 93H139.802V85H142.202V87.4ZM142.202 90.92H143.562C143.882 90.952 144.106 90.84 144.234 90.584C144.373 90.328 144.373 90.072 144.234 89.816C144.106 89.56 143.882 89.448 143.562 89.48H142.202V90.92ZM157.416 87.256L160.76 93H157.848L155.96 89.768L154.072 93H151.16L154.504 87.256L151.32 81.8H154.232L155.96 84.76L157.688 81.8H160.6L157.416 87.256Z" fill="#3E3E3E"/>
<path d="M12.534 18.32L16.194 17H18.994V31H15.794V20.38L13.314 21.06L12.534 18.32ZM20.6004 18.32L24.2604 17H27.0604V31H23.8604V20.38L21.3804 21.06L20.6004 18.32ZM33.1668 22.58C33.1668 23.1 32.9801 23.5467 32.6068 23.92C32.2335 24.2933 31.7868 24.48 31.2668 24.48C30.7468 24.48 30.3001 24.2933 29.9268 23.92C29.5535 23.5467 29.3668 23.1 29.3668 22.58C29.3668 22.06 29.5535 21.6133 29.9268 21.24C30.3001 20.8667 30.7468 20.68 31.2668 20.68C31.7868 20.68 32.2335 20.8667 32.6068 21.24C32.9801 21.6133 33.1668 22.06 33.1668 22.58ZM33.1668 29.38C33.1668 29.9 32.9801 30.3467 32.6068 30.72C32.2335 31.0933 31.7868 31.28 31.2668 31.28C30.7468 31.28 30.3001 31.0933 29.9268 30.72C29.5535 30.3467 29.3668 29.9 29.3668 29.38C29.3668 28.86 29.5535 28.4133 29.9268 28.04C30.3001 27.6667 30.7468 27.48 31.2668 27.48C31.7868 27.48 32.2335 27.6667 32.6068 28.04C32.9801 28.4133 33.1668 28.86 33.1668 29.38ZM43.9123 19.6L41.4923 22.68C42.3989 23 43.1189 23.5067 43.6523 24.2C44.1989 24.88 44.4723 25.68 44.4723 26.6C44.4723 28.0667 43.9789 29.2133 42.9923 30.04C42.0056 30.8667 40.7989 31.28 39.3723 31.28C38.2389 31.28 37.2389 31.0267 36.3723 30.52C35.5056 30 34.8723 29.2533 34.4723 28.28L37.2323 26.68C37.5789 27.6667 38.2923 28.16 39.3723 28.16C40.1589 28.2133 40.7189 27.9667 41.0523 27.42C41.3856 26.8733 41.3856 26.3267 41.0523 25.78C40.7189 25.2333 40.1589 24.9867 39.3723 25.04H38.7123L37.4923 23.22L40.0323 20H34.9123V17H43.9123V19.6ZM55.5484 29.3C54.5484 30.62 53.155 31.28 51.3684 31.28C49.595 31.28 48.195 30.62 47.1684 29.3C46.1684 27.9667 45.6684 26.2 45.6684 24C45.6684 21.8 46.1684 20.04 47.1684 18.72C48.1817 17.3867 49.5817 16.72 51.3684 16.72C53.155 16.72 54.5484 17.3867 55.5484 18.72C56.5617 20.0267 57.0684 21.7867 57.0684 24C57.0684 26.2 56.5617 27.9667 55.5484 29.3ZM51.3684 19.84C49.7017 19.84 48.8684 21.2267 48.8684 24C48.8684 26.7733 49.7017 28.16 51.3684 28.16C53.035 28.16 53.8684 26.7733 53.8684 24C53.8684 21.2267 53.035 19.84 51.3684 19.84Z" fill="#222222"/>
<line x1="70.8088" y1="27.5" x2="200.49" y2="27.5" stroke="#FBD5CD" stroke-width="3"/>
<line x1="70.8088" y1="107.5" x2="200.49" y2="107.5" stroke="#FBD5CD" stroke-width="3"/>
</svg>
