<svg width="68" height="46" viewBox="0 0 68 46" fill="none" xmlns="http://www.w3.org/2000/svg">
<path d="M67.3572 23.2396C67.3572 25.1563 67.3572 27.3125 67.3572 29.2292C67.1114 32.3438 66.8655 35.2188 66.3739 38.3333C65.8822 40.25 64.8989 41.9271 63.4239 43.125C61.9489 44.3229 59.9823 44.8021 58.0156 45.0417C56.2948 45.2812 54.8198 45.2813 53.099 45.5208C52.1157 45.5208 50.8865 45.7604 49.9032 45.7604C45.9699 45.7604 42.0366 46 38.1033 46C35.3992 46 32.6951 46 29.9909 46C27.5326 46 24.8285 46 22.3702 45.7604C19.1744 45.5208 16.2244 45.5208 13.0286 45.2813C11.5536 45.2813 10.0786 45.0417 8.84947 44.8021C7.37448 44.5625 6.14533 44.0833 4.91617 43.125C2.94953 41.6875 1.9662 39.5312 1.72037 37.375C1.22871 34.7396 0.98288 32.3438 0.98288 29.7083C0.98288 27.0729 0.737049 24.6771 0.737049 22.0417C-0.000443205 20.3646 0.245388 18.4479 0.245388 16.5313C0.491218 14.6146 0.491218 12.9375 0.737049 11.0208C0.98288 9.34375 1.22871 7.66667 1.9662 5.98958C3.19536 3.59375 5.162 1.91667 7.86614 1.4375C9.34113 1.19792 10.8161 0.958333 12.5369 0.958333C15.4869 0.71875 18.6827 0.71875 21.6327 0.479167C24.091 0.479167 26.5493 0.239583 29.0076 0.239583C31.4659 0.239583 33.9242 0 36.3825 0C39.0867 0 42.0366 0 44.7408 0.239583C46.7074 0.239583 48.9199 0.479167 50.8865 0.479167C52.3615 0.479167 54.0823 0.479167 55.5573 0.71875C57.2781 0.958333 59.2448 0.958333 60.9656 1.67708C63.6697 2.63542 65.3905 4.55208 66.128 7.1875C66.8655 10.3021 67.1114 13.4167 67.3572 16.7708C67.3572 18.9271 67.3572 21.0833 67.3572 23.2396ZM27.0409 23C27.0409 25.875 27.0409 28.75 27.0409 31.625C27.0409 31.8646 27.0409 32.3438 27.2868 32.5833C27.7784 32.5833 28.0243 32.3438 28.5159 32.3438C29.4993 31.625 30.7284 31.1458 31.7117 30.4271C33.4325 29.4688 35.1534 28.5104 36.6283 27.5521C38.1033 26.8333 39.3325 26.1146 40.8075 25.1563C41.7908 24.6771 43.0199 23.9583 44.0033 23.2396C44.4949 23 44.4949 22.5208 44.0033 22.2812C43.5116 22.0417 43.2658 21.8021 42.7741 21.5625C40.3158 20.125 37.6117 18.6875 35.1534 17.25C32.9409 16.0521 30.4826 14.6146 28.2701 13.4167C27.2868 13.1771 27.0409 13.4167 27.0409 14.1354C27.0409 17.0104 27.0409 20.125 27.0409 23Z" fill="#FFF2E9"/>
</svg>
